<svg width="189" height="71" viewBox="0 0 189 71" fill="none" xmlns="http://www.w3.org/2000/svg">
<path d="M71.3896 16.232H78.5896V41H71.3896V16.232ZM81.5416 32.576H80.1016V27.068H81.3256C82.0696 27.068 82.6336 27.044 83.0176 26.996C83.4016 26.924 83.7016 26.804 83.9176 26.636C84.1096 26.468 84.2416 26.216 84.3136 25.88C84.3856 25.544 84.4216 25.052 84.4216 24.404C84.4216 23.756 84.3856 23.264 84.3136 22.928C84.2416 22.568 84.1096 22.304 83.9176 22.136C83.7256 21.968 83.4376 21.86 83.0536 21.812C82.6936 21.764 82.1176 21.74 81.3256 21.74H80.1016V16.232H83.8096C85.5136 16.232 86.8936 16.4 87.9496 16.736C89.0056 17.072 89.8216 17.588 90.3976 18.284C90.9256 18.932 91.2736 19.736 91.4416 20.696C91.6336 21.656 91.7296 22.892 91.7296 24.404C91.7296 26.348 91.5496 27.848 91.1896 28.904C90.6856 30.248 89.7976 31.196 88.5256 31.748L92.2696 41H84.7096L81.5416 32.576ZM116.311 21.92C115.519 21.824 114.127 21.692 112.135 21.524C111.031 21.476 110.143 21.452 109.471 21.452C108.607 21.452 107.791 21.476 107.023 21.524V15.944H107.923C109.891 15.944 111.931 16.076 114.043 16.34C114.715 16.436 115.471 16.568 116.311 16.736V21.92ZM110.371 33.692C110.371 33.188 110.335 32.828 110.263 32.612C110.191 32.372 110.071 32.216 109.903 32.144C109.735 32.048 109.447 31.976 109.039 31.928L104.611 31.388C101.995 31.1 100.231 30.248 99.3194 28.832C98.9114 28.232 98.6354 27.5 98.4914 26.636C98.3474 25.772 98.2754 24.716 98.2754 23.468C98.2754 20.804 98.9594 18.884 100.327 17.708C101.431 16.748 103.159 16.184 105.511 16.016V23.252C105.511 23.564 105.523 23.828 105.547 24.044C105.571 24.26 105.619 24.428 105.691 24.548C105.763 24.692 105.883 24.8 106.051 24.872C106.219 24.92 106.471 24.956 106.807 24.98L111.775 25.592C112.807 25.736 113.647 25.916 114.295 26.132C114.943 26.348 115.495 26.684 115.951 27.14C117.031 28.268 117.571 30.272 117.571 33.152C117.571 36.2 116.899 38.336 115.555 39.56C114.955 40.112 114.223 40.52 113.359 40.784C112.519 41.024 111.523 41.18 110.371 41.252V33.692ZM108.463 41.288C106.063 41.288 103.831 41.18 101.767 40.964C100.543 40.844 99.6194 40.724 98.9954 40.604V35.348C100.411 35.468 102.031 35.588 103.855 35.708C105.007 35.756 105.823 35.78 106.303 35.78C107.599 35.78 108.451 35.744 108.859 35.672V41.288H108.463Z" fill="black"/>
<path d="M7.6108 55.27V56.572H5.0208V65H3.4248V56.572H0.820803V55.27H7.6108ZM14.6171 57.16C15.2051 57.16 15.7278 57.286 16.1851 57.538C16.6518 57.79 17.0158 58.1633 17.2771 58.658C17.5478 59.1527 17.6831 59.75 17.6831 60.45V65H16.1011V60.688C16.1011 59.9973 15.9285 59.47 15.5831 59.106C15.2378 58.7327 14.7665 58.546 14.1691 58.546C13.5718 58.546 13.0958 58.7327 12.7411 59.106C12.3958 59.47 12.2231 59.9973 12.2231 60.688V65H10.6271V54.64H12.2231V58.182C12.4938 57.8553 12.8345 57.6033 13.2451 57.426C13.6651 57.2487 14.1225 57.16 14.6171 57.16ZM21.9309 56.264C21.6416 56.264 21.3989 56.166 21.2029 55.97C21.0069 55.774 20.9089 55.5313 20.9089 55.242C20.9089 54.9527 21.0069 54.71 21.2029 54.514C21.3989 54.318 21.6416 54.22 21.9309 54.22C22.2109 54.22 22.4489 54.318 22.6449 54.514C22.8409 54.71 22.9389 54.9527 22.9389 55.242C22.9389 55.5313 22.8409 55.774 22.6449 55.97C22.4489 56.166 22.2109 56.264 21.9309 56.264ZM22.7149 57.286V65H21.1189V57.286H22.7149ZM30.1024 57.16C30.709 57.16 31.2504 57.286 31.7264 57.538C32.2117 57.79 32.5897 58.1633 32.8604 58.658C33.131 59.1527 33.2664 59.75 33.2664 60.45V65H31.6844V60.688C31.6844 59.9973 31.5117 59.47 31.1664 59.106C30.821 58.7327 30.3497 58.546 29.7524 58.546C29.155 58.546 28.679 58.7327 28.3244 59.106C27.979 59.47 27.8064 59.9973 27.8064 60.688V65H26.2104V57.286H27.8064V58.168C28.0677 57.8507 28.399 57.6033 28.8004 57.426C29.211 57.2487 29.645 57.16 30.1024 57.16ZM39.7541 61.15L43.3101 65H41.1541L38.2981 61.682V65H36.7021V54.64H38.2981V60.66L41.0981 57.286H43.3101L39.7541 61.15ZM52.9068 66.582H51.3108V53.786H52.9068V66.582ZM65.0446 55.27C66.0806 55.27 66.9859 55.4707 67.7606 55.872C68.5446 56.264 69.1466 56.8333 69.5666 57.58C69.9959 58.3173 70.2106 59.1807 70.2106 60.17C70.2106 61.1593 69.9959 62.018 69.5666 62.746C69.1466 63.474 68.5446 64.034 67.7606 64.426C66.9859 64.8087 66.0806 65 65.0446 65H61.8666V55.27H65.0446ZM65.0446 63.698C66.1833 63.698 67.0559 63.39 67.6626 62.774C68.2693 62.158 68.5726 61.29 68.5726 60.17C68.5726 59.0407 68.2693 58.1587 67.6626 57.524C67.0559 56.8893 66.1833 56.572 65.0446 56.572H63.4626V63.698H65.0446ZM80.2624 60.954C80.2624 61.2433 80.2437 61.5047 80.2064 61.738H74.3124C74.359 62.354 74.5877 62.8487 74.9984 63.222C75.409 63.5953 75.913 63.782 76.5104 63.782C77.369 63.782 77.9757 63.4227 78.3304 62.704H80.0524C79.819 63.4133 79.3944 63.9967 78.7784 64.454C78.1717 64.902 77.4157 65.126 76.5104 65.126C75.773 65.126 75.1104 64.9627 74.5224 64.636C73.9437 64.3 73.4864 63.8333 73.1504 63.236C72.8237 62.6293 72.6604 61.9293 72.6604 61.136C72.6604 60.3427 72.819 59.6473 73.1364 59.05C73.463 58.4433 73.9157 57.9767 74.4944 57.65C75.0824 57.3233 75.7544 57.16 76.5104 57.16C77.2384 57.16 77.887 57.3187 78.4564 57.636C79.0257 57.9533 79.469 58.4013 79.7864 58.98C80.1037 59.5493 80.2624 60.2073 80.2624 60.954ZM78.5964 60.45C78.587 59.862 78.377 59.3907 77.9664 59.036C77.5557 58.6813 77.047 58.504 76.4404 58.504C75.8897 58.504 75.4184 58.6813 75.0264 59.036C74.6344 59.3813 74.401 59.8527 74.3264 60.45H78.5964ZM86.033 65.126C85.4263 65.126 84.8803 65.0187 84.395 64.804C83.919 64.58 83.541 64.2813 83.261 63.908C82.981 63.5253 82.8317 63.1007 82.813 62.634H84.465C84.493 62.9607 84.647 63.236 84.927 63.46C85.2163 63.6747 85.5757 63.782 86.005 63.782C86.453 63.782 86.7983 63.698 87.041 63.53C87.293 63.3527 87.419 63.1287 87.419 62.858C87.419 62.5687 87.279 62.354 86.999 62.214C86.7283 62.074 86.2943 61.92 85.697 61.752C85.1183 61.5933 84.647 61.4393 84.283 61.29C83.919 61.1407 83.6017 60.912 83.331 60.604C83.0697 60.296 82.939 59.89 82.939 59.386C82.939 58.9753 83.0603 58.602 83.303 58.266C83.5457 57.9207 83.891 57.65 84.339 57.454C84.7963 57.258 85.319 57.16 85.907 57.16C86.7843 57.16 87.489 57.384 88.021 57.832C88.5623 58.2707 88.8517 58.8727 88.889 59.638H87.293C87.265 59.2927 87.125 59.0173 86.873 58.812C86.621 58.6067 86.2803 58.504 85.851 58.504C85.431 58.504 85.109 58.5833 84.885 58.742C84.661 58.9007 84.549 59.1107 84.549 59.372C84.549 59.5773 84.6237 59.75 84.773 59.89C84.9223 60.03 85.1043 60.142 85.319 60.226C85.5337 60.3007 85.851 60.3987 86.271 60.52C86.831 60.6693 87.2883 60.8233 87.643 60.982C88.007 61.1313 88.3197 61.3553 88.581 61.654C88.8423 61.9527 88.9777 62.3493 88.987 62.844C88.987 63.2827 88.8657 63.6747 88.623 64.02C88.3803 64.3653 88.035 64.636 87.587 64.832C87.1483 65.028 86.6303 65.126 86.033 65.126ZM92.9235 56.264C92.6342 56.264 92.3915 56.166 92.1955 55.97C91.9995 55.774 91.9015 55.5313 91.9015 55.242C91.9015 54.9527 91.9995 54.71 92.1955 54.514C92.3915 54.318 92.6342 54.22 92.9235 54.22C93.2035 54.22 93.4415 54.318 93.6375 54.514C93.8335 54.71 93.9315 54.9527 93.9315 55.242C93.9315 55.5313 93.8335 55.774 93.6375 55.97C93.4415 56.166 93.2035 56.264 92.9235 56.264ZM93.7075 57.286V65H92.1115V57.286H93.7075ZM100.311 57.16C100.908 57.16 101.436 57.2813 101.893 57.524C102.36 57.7573 102.724 58.0513 102.985 58.406V57.286H104.595V65.126C104.595 65.8353 104.446 66.4653 104.147 67.016C103.848 67.576 103.414 68.0147 102.845 68.332C102.285 68.6493 101.613 68.808 100.829 68.808C99.7836 68.808 98.9156 68.5607 98.2249 68.066C97.5343 67.5807 97.1423 66.918 97.0489 66.078H98.6309C98.7523 66.4793 99.0089 66.8013 99.4009 67.044C99.8023 67.296 100.278 67.422 100.829 67.422C101.473 67.422 101.991 67.226 102.383 66.834C102.784 66.442 102.985 65.8727 102.985 65.126V63.838C102.714 64.202 102.346 64.51 101.879 64.762C101.422 65.0047 100.899 65.126 100.311 65.126C99.6389 65.126 99.0229 64.958 98.4629 64.622C97.9123 64.2767 97.4736 63.8007 97.1469 63.194C96.8296 62.578 96.6709 61.8827 96.6709 61.108C96.6709 60.3333 96.8296 59.6473 97.1469 59.05C97.4736 58.4527 97.9123 57.9907 98.4629 57.664C99.0229 57.328 99.6389 57.16 100.311 57.16ZM102.985 61.136C102.985 60.604 102.873 60.142 102.649 59.75C102.434 59.358 102.15 59.0593 101.795 58.854C101.44 58.6487 101.058 58.546 100.647 58.546C100.236 58.546 99.8536 58.6487 99.4989 58.854C99.1443 59.05 98.8549 59.344 98.6309 59.736C98.4163 60.1187 98.3089 60.576 98.3089 61.108C98.3089 61.64 98.4163 62.1067 98.6309 62.508C98.8549 62.9093 99.1443 63.2173 99.4989 63.432C99.8629 63.6373 100.246 63.74 100.647 63.74C101.058 63.74 101.44 63.6373 101.795 63.432C102.15 63.2267 102.434 62.928 102.649 62.536C102.873 62.1347 102.985 61.668 102.985 61.136ZM111.983 57.16C112.59 57.16 113.131 57.286 113.607 57.538C114.093 57.79 114.471 58.1633 114.741 58.658C115.012 59.1527 115.147 59.75 115.147 60.45V65H113.565V60.688C113.565 59.9973 113.393 59.47 113.047 59.106C112.702 58.7327 112.231 58.546 111.633 58.546C111.036 58.546 110.56 58.7327 110.205 59.106C109.86 59.47 109.687 59.9973 109.687 60.688V65H108.091V57.286H109.687V58.168C109.949 57.8507 110.28 57.6033 110.681 57.426C111.092 57.2487 111.526 57.16 111.983 57.16ZM125.636 66.582H124.04V53.786H125.636V66.582ZM134.064 60.114C134.064 59.162 134.283 58.308 134.722 57.552C135.17 56.796 135.772 56.208 136.528 55.788C137.293 55.3587 138.128 55.144 139.034 55.144C140.07 55.144 140.989 55.4007 141.792 55.914C142.604 56.418 143.192 57.1367 143.556 58.07H141.638C141.386 57.5567 141.036 57.174 140.588 56.922C140.14 56.67 139.622 56.544 139.034 56.544C138.39 56.544 137.816 56.6887 137.312 56.978C136.808 57.2673 136.411 57.6827 136.122 58.224C135.842 58.7653 135.702 59.3953 135.702 60.114C135.702 60.8327 135.842 61.4627 136.122 62.004C136.411 62.5453 136.808 62.9653 137.312 63.264C137.816 63.5533 138.39 63.698 139.034 63.698C139.622 63.698 140.14 63.572 140.588 63.32C141.036 63.068 141.386 62.6853 141.638 62.172H143.556C143.192 63.1053 142.604 63.824 141.792 64.328C140.989 64.832 140.07 65.084 139.034 65.084C138.119 65.084 137.284 64.874 136.528 64.454C135.772 64.0247 135.17 63.432 134.722 62.676C134.283 61.92 134.064 61.066 134.064 60.114ZM148.42 58.406C148.653 58.014 148.961 57.7107 149.344 57.496C149.736 57.272 150.198 57.16 150.73 57.16V58.812H150.324C149.698 58.812 149.222 58.9707 148.896 59.288C148.578 59.6053 148.42 60.156 148.42 60.94V65H146.824V57.286H148.42V58.406ZM160.667 60.954C160.667 61.2433 160.648 61.5047 160.611 61.738H154.717C154.763 62.354 154.992 62.8487 155.403 63.222C155.813 63.5953 156.317 63.782 156.915 63.782C157.773 63.782 158.38 63.4227 158.735 62.704H160.457C160.223 63.4133 159.799 63.9967 159.183 64.454C158.576 64.902 157.82 65.126 156.915 65.126C156.177 65.126 155.515 64.9627 154.927 64.636C154.348 64.3 153.891 63.8333 153.555 63.236C153.228 62.6293 153.065 61.9293 153.065 61.136C153.065 60.3427 153.223 59.6473 153.541 59.05C153.867 58.4433 154.32 57.9767 154.899 57.65C155.487 57.3233 156.159 57.16 156.915 57.16C157.643 57.16 158.291 57.3187 158.861 57.636C159.43 57.9533 159.873 58.4013 160.191 58.98C160.508 59.5493 160.667 60.2073 160.667 60.954ZM159.001 60.45C158.991 59.862 158.781 59.3907 158.371 59.036C157.96 58.6813 157.451 58.504 156.845 58.504C156.294 58.504 155.823 58.6813 155.431 59.036C155.039 59.3813 154.805 59.8527 154.731 60.45H159.001ZM163.105 61.108C163.105 60.3333 163.264 59.6473 163.581 59.05C163.908 58.4527 164.347 57.9907 164.897 57.664C165.457 57.328 166.073 57.16 166.745 57.16C167.352 57.16 167.879 57.2813 168.327 57.524C168.785 57.7573 169.149 58.0513 169.419 58.406V57.286H171.029V65H169.419V63.852C169.149 64.216 168.78 64.5193 168.313 64.762C167.847 65.0047 167.315 65.126 166.717 65.126C166.055 65.126 165.448 64.958 164.897 64.622C164.347 64.2767 163.908 63.8007 163.581 63.194C163.264 62.578 163.105 61.8827 163.105 61.108ZM169.419 61.136C169.419 60.604 169.307 60.142 169.083 59.75C168.869 59.358 168.584 59.0593 168.229 58.854C167.875 58.6487 167.492 58.546 167.081 58.546C166.671 58.546 166.288 58.6487 165.933 58.854C165.579 59.05 165.289 59.344 165.065 59.736C164.851 60.1187 164.743 60.576 164.743 61.108C164.743 61.64 164.851 62.1067 165.065 62.508C165.289 62.9093 165.579 63.2173 165.933 63.432C166.297 63.6373 166.68 63.74 167.081 63.74C167.492 63.74 167.875 63.6373 168.229 63.432C168.584 63.2267 168.869 62.928 169.083 62.536C169.307 62.1347 169.419 61.668 169.419 61.136ZM176.388 58.588V62.858C176.388 63.1473 176.453 63.3573 176.584 63.488C176.724 63.6093 176.957 63.67 177.284 63.67H178.264V65H177.004C176.285 65 175.734 64.832 175.352 64.496C174.969 64.16 174.778 63.614 174.778 62.858V58.588H173.868V57.286H174.778V55.368H176.388V57.286H178.264V58.588H176.388ZM188.205 60.954C188.205 61.2433 188.186 61.5047 188.149 61.738H182.255C182.301 62.354 182.53 62.8487 182.941 63.222C183.351 63.5953 183.855 63.782 184.453 63.782C185.311 63.782 185.918 63.4227 186.273 62.704H187.995C187.761 63.4133 187.337 63.9967 186.721 64.454C186.114 64.902 185.358 65.126 184.453 65.126C183.715 65.126 183.053 64.9627 182.465 64.636C181.886 64.3 181.429 63.8333 181.093 63.236C180.766 62.6293 180.603 61.9293 180.603 61.136C180.603 60.3427 180.761 59.6473 181.079 59.05C181.405 58.4433 181.858 57.9767 182.437 57.65C183.025 57.3233 183.697 57.16 184.453 57.16C185.181 57.16 185.829 57.3187 186.399 57.636C186.968 57.9533 187.411 58.4013 187.729 58.98C188.046 59.5493 188.205 60.2073 188.205 60.954ZM186.539 60.45C186.529 59.862 186.319 59.3907 185.909 59.036C185.498 58.6813 184.989 58.504 184.383 58.504C183.832 58.504 183.361 58.6813 182.969 59.036C182.577 59.3813 182.343 59.8527 182.269 60.45H186.539Z" fill="black"/>
</svg>
