<svg width="44" height="33" viewBox="0 0 44 33" fill="none" xmlns="http://www.w3.org/2000/svg">
<path d="M6.92641 10.488H11.7264V27H6.92641V10.488ZM13.6944 21.384H12.7344V17.712H13.5504C14.0464 17.712 14.4224 17.696 14.6784 17.664C14.9344 17.616 15.1344 17.536 15.2784 17.424C15.4064 17.312 15.4944 17.144 15.5424 16.92C15.5904 16.696 15.6144 16.368 15.6144 15.936C15.6144 15.504 15.5904 15.176 15.5424 14.952C15.4944 14.712 15.4064 14.536 15.2784 14.424C15.1504 14.312 14.9584 14.24 14.7024 14.208C14.4624 14.176 14.0784 14.16 13.5504 14.16H12.7344V10.488H15.2064C16.3424 10.488 17.2624 10.6 17.9664 10.824C18.6704 11.048 19.2144 11.392 19.5984 11.856C19.9504 12.288 20.1824 12.824 20.2944 13.464C20.4224 14.104 20.4864 14.928 20.4864 15.936C20.4864 17.232 20.3664 18.232 20.1264 18.936C19.7904 19.832 19.1984 20.464 18.3504 20.832L20.8464 27H15.8064L13.6944 21.384ZM36.8743 14.28C36.3463 14.216 35.4183 14.128 34.0903 14.016C33.3543 13.984 32.7623 13.968 32.3143 13.968C31.7383 13.968 31.1943 13.984 30.6823 14.016V10.296H31.2823C32.5943 10.296 33.9543 10.384 35.3623 10.56C35.8103 10.624 36.3143 10.712 36.8743 10.824V14.28ZM32.9143 22.128C32.9143 21.792 32.8903 21.552 32.8423 21.408C32.7943 21.248 32.7143 21.144 32.6023 21.096C32.4903 21.032 32.2983 20.984 32.0263 20.952L29.0743 20.592C27.3303 20.4 26.1543 19.832 25.5463 18.888C25.2743 18.488 25.0903 18 24.9943 17.424C24.8983 16.848 24.8503 16.144 24.8503 15.312C24.8503 13.536 25.3063 12.256 26.2183 11.472C26.9543 10.832 28.1063 10.456 29.6743 10.344V15.168C29.6743 15.376 29.6823 15.552 29.6983 15.696C29.7143 15.84 29.7463 15.952 29.7943 16.032C29.8423 16.128 29.9223 16.2 30.0343 16.248C30.1463 16.28 30.3143 16.304 30.5383 16.32L33.8503 16.728C34.5383 16.824 35.0983 16.944 35.5303 17.088C35.9623 17.232 36.3303 17.456 36.6343 17.76C37.3543 18.512 37.7143 19.848 37.7143 21.768C37.7143 23.8 37.2663 25.224 36.3703 26.04C35.9703 26.408 35.4823 26.68 34.9063 26.856C34.3463 27.016 33.6823 27.12 32.9143 27.168V22.128ZM31.6423 27.192C30.0423 27.192 28.5543 27.12 27.1783 26.976C26.3623 26.896 25.7463 26.816 25.3303 26.736V23.232C26.2743 23.312 27.3543 23.392 28.5703 23.472C29.3383 23.504 29.8823 23.52 30.2023 23.52C31.0663 23.52 31.6343 23.496 31.9063 23.448V27.192H31.6423Z" fill="black"/>
</svg>
