<svg width="877" height="109" viewBox="0 0 877 109" fill="none" xmlns="http://www.w3.org/2000/svg">
<g filter="url(#filter0_d)">
<path d="M48.3166 78L35.5486 53.616H35.4526V78H14.1406V10.032H45.8206C51.3246 10.032 56.0286 11.024 59.9326 13.008C63.8366 14.928 66.7486 17.584 68.6686 20.976C70.6526 24.304 71.6446 28.08 71.6446 32.304C71.6446 36.848 70.3646 40.88 67.8046 44.4C65.3086 47.92 61.6926 50.448 56.9566 51.984L71.7406 78H48.3166ZM35.4526 39.408H43.9006C45.9486 39.408 47.4846 38.96 48.5086 38.064C49.5326 37.104 50.0446 35.632 50.0446 33.648C50.0446 31.856 49.5006 30.448 48.4126 29.424C47.3886 28.4 45.8846 27.888 43.9006 27.888H35.4526V39.408ZM121.173 78.672C114.773 78.672 108.885 77.168 103.509 74.16C98.1971 71.152 93.9731 66.992 90.8371 61.68C87.7011 56.368 86.1331 50.384 86.1331 43.728C86.1331 37.072 87.7011 31.088 90.8371 25.776C93.9731 20.464 98.1971 16.336 103.509 13.392C108.885 10.384 114.773 8.88 121.173 8.88C127.573 8.88 133.429 10.384 138.741 13.392C144.053 16.336 148.245 20.464 151.317 25.776C154.453 31.088 156.021 37.072 156.021 43.728C156.021 50.384 154.453 56.368 151.317 61.68C148.245 66.992 144.021 71.152 138.645 74.16C133.333 77.168 127.509 78.672 121.173 78.672ZM121.173 58.8C125.397 58.8 128.661 57.456 130.965 54.768C133.269 52.016 134.421 48.336 134.421 43.728C134.421 39.056 133.269 35.376 130.965 32.688C128.661 29.936 125.397 28.56 121.173 28.56C116.885 28.56 113.589 29.936 111.285 32.688C108.981 35.376 107.829 39.056 107.829 43.728C107.829 48.336 108.981 52.016 111.285 54.768C113.589 57.456 116.885 58.8 121.173 58.8ZM236.189 10.032V78H214.877V51.504H194.621V78H173.309V10.032H194.621V34.512H214.877V10.032H236.189ZM298.962 67.728H276.306L272.946 78H250.578L275.442 10.032H300.018L324.786 78H302.322L298.962 67.728ZM293.778 51.696L287.634 32.784L281.49 51.696H293.778ZM404.412 78H383.1L360.54 43.824V78H339.228V10.032H360.54L383.1 44.784V10.032H404.412V78ZM476.145 78.672C468.017 78.672 461.297 76.784 455.985 73.008C450.737 69.168 447.889 63.568 447.441 56.208H470.097C470.417 60.112 472.145 62.064 475.281 62.064C476.433 62.064 477.393 61.808 478.161 61.296C478.993 60.72 479.409 59.856 479.409 58.704C479.409 57.104 478.545 55.824 476.817 54.864C475.089 53.84 472.401 52.688 468.753 51.408C464.401 49.872 460.785 48.368 457.905 46.896C455.089 45.424 452.657 43.28 450.609 40.464C448.561 37.648 447.569 34.032 447.633 29.616C447.633 25.2 448.753 21.456 450.993 18.384C453.297 15.248 456.401 12.88 460.305 11.28C464.273 9.68 468.721 8.88 473.649 8.88C481.969 8.88 488.561 10.8 493.425 14.64C498.353 18.48 500.945 23.888 501.201 30.864H478.257C478.193 28.944 477.713 27.568 476.817 26.736C475.921 25.904 474.833 25.488 473.553 25.488C472.657 25.488 471.921 25.808 471.345 26.448C470.769 27.024 470.481 27.856 470.481 28.944C470.481 30.48 471.313 31.76 472.977 32.784C474.705 33.744 477.425 34.928 481.137 36.336C485.425 37.936 488.945 39.472 491.697 40.944C494.513 42.416 496.945 44.464 498.993 47.088C501.041 49.712 502.065 53.008 502.065 56.976C502.065 61.136 501.041 64.88 498.993 68.208C496.945 71.472 493.969 74.032 490.065 75.888C486.161 77.744 481.521 78.672 476.145 78.672ZM582.033 10.032V78H560.721V51.504H540.465V78H519.153V10.032H540.465V34.512H560.721V10.032H582.033ZM622.534 10.032V78H601.222V10.032H622.534ZM706.943 78H685.631L663.071 43.824V78H641.759V10.032H663.071L685.631 44.784V10.032H706.943V78ZM754.492 10.032C761.596 10.032 767.804 11.472 773.116 14.352C778.492 17.232 782.62 21.232 785.5 26.352C788.38 31.472 789.82 37.296 789.82 43.824C789.82 50.288 788.38 56.112 785.5 61.296C782.62 66.48 778.492 70.576 773.116 73.584C767.804 76.528 761.596 78 754.492 78H726.172V10.032H754.492ZM752.572 58.992C757.372 58.992 761.18 57.68 763.996 55.056C766.812 52.432 768.22 48.688 768.22 43.824C768.22 38.96 766.812 35.216 763.996 32.592C761.18 29.968 757.372 28.656 752.572 28.656H747.484V58.992H752.572ZM828.428 27.024V35.376H849.548V51.408H828.428V61.008H852.428V78H807.116V10.032H852.428V27.024H828.428Z" fill="#1C1C1C"/>
</g>
<defs>
<filter id="filter0_d" x="0.140636" y="0.880005" width="876.287" height="107.792" filterUnits="userSpaceOnUse" color-interpolation-filters="sRGB">
<feFlood flood-opacity="0" result="BackgroundImageFix"/>
<feColorMatrix in="SourceAlpha" type="matrix" values="0 0 0 0 0 0 0 0 0 0 0 0 0 0 0 0 0 0 127 0"/>
<feOffset dx="5" dy="11"/>
<feGaussianBlur stdDeviation="9.5"/>
<feColorMatrix type="matrix" values="0 0 0 0 0 0 0 0 0 0 0 0 0 0 0 0 0 0 0.5 0"/>
<feBlend mode="normal" in2="BackgroundImageFix" result="effect1_dropShadow"/>
<feBlend mode="normal" in="SourceGraphic" in2="effect1_dropShadow" result="shape"/>
</filter>
</defs>
</svg>
