<svg width="344" height="182" viewBox="0 0 344 182" fill="none" xmlns="http://www.w3.org/2000/svg">
<g filter="url(#filter0_d)">
<path d="M37.0465 55L28.5345 38.744H28.4705V55H14.2625V9.688H35.3825C39.0518 9.688 42.1878 10.3493 44.7905 11.672C47.3932 12.952 49.3345 14.7227 50.6145 16.984C51.9372 19.2027 52.5985 21.72 52.5985 24.536C52.5985 27.5653 51.7452 30.2533 50.0385 32.6C48.3745 34.9467 45.9638 36.632 42.8065 37.656L52.6625 55H37.0465ZM28.4705 29.272H34.1025C35.4678 29.272 36.4918 28.9733 37.1745 28.376C37.8572 27.736 38.1985 26.7547 38.1985 25.432C38.1985 24.2373 37.8358 23.2987 37.1105 22.616C36.4278 21.9333 35.4252 21.592 34.1025 21.592H28.4705V29.272ZM92.0175 55.448C87.7508 55.448 83.8255 54.4453 80.2415 52.44C76.7002 50.4347 73.8842 47.6613 71.7935 44.12C69.7028 40.5787 68.6575 36.5893 68.6575 32.152C68.6575 27.7147 69.7028 23.7253 71.7935 20.184C73.8842 16.6427 76.7002 13.8907 80.2415 11.928C83.8255 9.92266 87.7508 8.92 92.0175 8.92C96.2842 8.92 100.188 9.92266 103.729 11.928C107.271 13.8907 110.066 16.6427 112.114 20.184C114.204 23.7253 115.25 27.7147 115.25 32.152C115.25 36.5893 114.204 40.5787 112.114 44.12C110.066 47.6613 107.25 50.4347 103.666 52.44C100.124 54.4453 96.2415 55.448 92.0175 55.448ZM92.0175 42.2C94.8335 42.2 97.0095 41.304 98.5455 39.512C100.082 37.6773 100.85 35.224 100.85 32.152C100.85 29.0373 100.082 26.584 98.5455 24.792C97.0095 22.9573 94.8335 22.04 92.0175 22.04C89.1588 22.04 86.9615 22.9573 85.4255 24.792C83.8895 26.584 83.1215 29.0373 83.1215 32.152C83.1215 35.224 83.8895 37.6773 85.4255 39.512C86.9615 41.304 89.1588 42.2 92.0175 42.2ZM175.095 9.688V55H160.887V37.336H147.383V55H133.175V9.688H147.383V26.008H160.887V9.688H175.095ZM223.343 48.152H208.239L205.999 55H191.087L207.663 9.688H224.047L240.559 55H225.583L223.343 48.152ZM219.887 37.464L215.791 24.856L211.695 37.464H219.887ZM300.043 55H285.835L270.795 32.216V55H256.587V9.688H270.795L285.835 32.856V9.688H300.043V55ZM36.9593 151.448C31.5406 151.448 27.0606 150.189 23.5193 147.672C20.0206 145.112 18.1219 141.379 17.8233 136.472H32.9272C33.1406 139.075 34.2926 140.376 36.3833 140.376C37.1513 140.376 37.7913 140.205 38.3033 139.864C38.8579 139.48 39.1353 138.904 39.1353 138.136C39.1353 137.069 38.5593 136.216 37.4073 135.576C36.2553 134.893 34.4633 134.125 32.0312 133.272C29.1299 132.248 26.7193 131.245 24.7993 130.264C22.9219 129.283 21.3006 127.853 19.9353 125.976C18.5699 124.099 17.9086 121.688 17.9513 118.744C17.9513 115.8 18.6979 113.304 20.1913 111.256C21.7273 109.165 23.7966 107.587 26.3993 106.52C29.0446 105.453 32.0099 104.92 35.2953 104.92C40.8419 104.92 45.2366 106.2 48.4793 108.76C51.7646 111.32 53.4926 114.925 53.6632 119.576H38.3673C38.3246 118.296 38.0046 117.379 37.4073 116.824C36.8099 116.269 36.0846 115.992 35.2313 115.992C34.6339 115.992 34.1433 116.205 33.7593 116.632C33.3753 117.016 33.1833 117.571 33.1833 118.296C33.1833 119.32 33.7379 120.173 34.8472 120.856C35.9993 121.496 37.8126 122.285 40.2873 123.224C43.1459 124.291 45.4926 125.315 47.3273 126.296C49.2046 127.277 50.8259 128.643 52.1912 130.392C53.5566 132.141 54.2393 134.339 54.2393 136.984C54.2393 139.757 53.5566 142.253 52.1912 144.472C50.8259 146.648 48.8419 148.355 46.2393 149.592C43.6366 150.829 40.5433 151.448 36.9593 151.448ZM113.951 105.688V151H99.7432V133.336H86.2393V151H72.0312V105.688H86.2393V122.008H99.7432V105.688H113.951ZM147.352 105.688V151H133.144V105.688H147.352ZM210.025 151H195.817L180.777 128.216V151H166.569V105.688H180.777L195.817 128.856V105.688H210.025V151ZM248.124 105.688C252.86 105.688 256.998 106.648 260.54 108.568C264.124 110.488 266.876 113.155 268.796 116.568C270.716 119.981 271.676 123.864 271.676 128.216C271.676 132.525 270.716 136.408 268.796 139.864C266.876 143.32 264.124 146.051 260.54 148.056C256.998 150.019 252.86 151 248.124 151H229.244V105.688H248.124ZM246.844 138.328C250.044 138.328 252.582 137.453 254.46 135.704C256.337 133.955 257.276 131.459 257.276 128.216C257.276 124.973 256.337 122.477 254.46 120.728C252.582 118.979 250.044 118.104 246.844 118.104H243.452V138.328H246.844ZM303.814 117.016V122.584H317.894V133.272H303.814V139.672H319.814V151H289.606V105.688H319.814V117.016H303.814Z" fill="#1C1C1C"/>
</g>
<defs>
<filter id="filter0_d" x="0.262451" y="0.919998" width="343.552" height="180.528" filterUnits="userSpaceOnUse" color-interpolation-filters="sRGB">
<feFlood flood-opacity="0" result="BackgroundImageFix"/>
<feColorMatrix in="SourceAlpha" type="matrix" values="0 0 0 0 0 0 0 0 0 0 0 0 0 0 0 0 0 0 127 0"/>
<feOffset dx="5" dy="11"/>
<feGaussianBlur stdDeviation="9.5"/>
<feColorMatrix type="matrix" values="0 0 0 0 0 0 0 0 0 0 0 0 0 0 0 0 0 0 0.5 0"/>
<feBlend mode="normal" in2="BackgroundImageFix" result="effect1_dropShadow"/>
<feBlend mode="normal" in="SourceGraphic" in2="effect1_dropShadow" result="shape"/>
</filter>
</defs>
</svg>
