<svg width="854" height="678" viewBox="0 0 854 678" fill="none" xmlns="http://www.w3.org/2000/svg">
<path d="M265.381 552.909C314.272 552.909 363.164 552.909 412.055 552.909C460.786 552.909 509.518 552.909 558.196 552.909C585.737 552.909 613.332 552.909 640.874 552.909C641.888 552.909 641.888 551.214 640.874 551.214C591.982 551.214 543.091 551.214 494.199 551.214C445.468 551.214 396.736 551.214 348.058 551.214C320.517 551.214 292.922 551.214 265.381 551.214C264.366 551.214 264.366 552.909 265.381 552.909Z" fill="#304352"/>
<path d="M650.748 517.766C650.321 534.038 651.869 550.31 655.392 566.187C655.605 567.26 657.153 566.808 656.94 565.735C653.47 550.028 651.922 533.925 652.403 517.766C652.349 516.693 650.748 516.693 650.748 517.766Z" fill="#304352"/>
<path d="M714.318 519.066C715.812 534.095 714.905 549.293 711.649 563.983C711.435 565.057 712.93 565.509 713.197 564.435C716.506 549.576 717.467 534.264 715.919 519.066C715.812 517.992 714.211 517.992 714.318 519.066Z" fill="#304352"/>
<path d="M656.032 567.769C674.5 572.741 694.035 572.063 712.129 565.735C713.09 565.396 712.663 563.757 711.702 564.096C693.822 570.311 674.66 571.046 656.459 566.13C655.445 565.904 655.018 567.543 656.032 567.769Z" fill="#304352"/>
<path d="M651.495 518.557C672.258 523.246 693.768 523.133 714.478 518.274C715.492 518.048 715.065 516.41 714.051 516.636C693.608 521.438 672.365 521.495 651.922 516.919C650.908 516.693 650.481 518.331 651.495 518.557Z" fill="#304352"/>
<path d="M664.145 519.179C661.37 512.568 663.878 504.489 665.96 497.991C668.095 491.268 671.137 484.883 674.873 479.007C674.446 479.064 674.019 479.12 673.592 479.177C674.82 480.646 676.154 481.663 677.809 482.51C678.45 482.793 679.143 482.341 678.983 481.55C678.343 478.499 677.222 475.504 678.503 472.453C679.41 470.306 680.691 468.159 681.759 466.125C681.385 466.238 681.012 466.351 680.638 466.408C681.759 467.142 682.88 467.82 684.001 468.555C684.748 469.063 685.388 468.103 685.121 467.368C684.001 464.769 683.253 462.17 684.801 459.571C685.709 457.989 686.883 456.577 687.897 455.108C690.139 451.944 692.487 448.78 694.836 445.672C699.319 439.74 703.963 433.977 708.767 428.327C708.34 428.27 707.913 428.214 707.486 428.157C714.318 437.649 718.641 449.006 719.815 460.871C720.402 466.577 720.242 472.453 719.281 478.103C718.801 480.985 718.107 483.81 717.253 486.578C717.093 487.143 716.88 487.708 716.719 488.217C716.132 489.799 715.172 490.477 713.624 490.816C712.556 491.042 711.969 490.872 711.062 491.607C710.635 491.946 710.528 492.511 710.902 492.963C712.076 494.262 712.556 494.488 712.129 496.24C711.862 497.37 711.222 498.556 710.741 499.686C709.781 501.946 708.713 504.15 707.592 506.297C705.297 510.704 702.682 514.885 699.746 518.84C699.106 519.687 700.227 520.874 700.867 520.026C706.525 512.342 711.008 503.924 714.371 494.884C714.478 494.601 714.371 494.262 714.157 494.036C713.464 493.302 712.77 492.511 712.022 491.776C711.969 492.228 711.916 492.68 711.862 493.132C713.09 492.228 714.478 492.85 715.759 492.285C716.773 491.889 717.307 491.098 717.734 490.081C718.908 487.426 719.655 484.375 720.296 481.55C721.63 475.335 722.057 468.95 721.63 462.622C720.723 449.853 716.292 437.48 708.927 427.31C708.66 426.914 708.073 426.688 707.646 427.14C701.721 434.09 696.01 441.265 690.566 448.61C688.111 451.887 685.495 455.164 683.36 458.724C681.439 461.944 682.346 464.995 683.68 468.272C684.054 467.877 684.428 467.481 684.801 467.086C683.68 466.351 682.559 465.673 681.439 464.939C681.065 464.713 680.531 464.826 680.318 465.221C678.983 467.82 676.902 470.702 676.155 473.583C675.514 476.126 676.848 479.459 677.382 481.945C677.756 481.606 678.183 481.324 678.556 480.985C677.009 480.25 675.781 479.29 674.66 477.934C674.286 477.482 673.646 477.651 673.379 478.103C669.216 484.657 665.96 491.833 663.718 499.404C661.797 505.958 659.928 513.416 662.651 519.97C663.184 520.987 664.572 520.139 664.145 519.179Z" fill="#304352"/>
<path d="M707.592 441.152C705.457 466.746 688.911 487.256 682.026 511.325C681.706 512.398 683.253 512.794 683.574 511.777C690.459 487.538 707.059 466.972 709.194 441.152C709.3 440.022 707.646 440.079 707.592 441.152Z" fill="#304352"/>
<path d="M687.417 454.769C689.125 464.091 691.099 473.301 693.341 482.454C693.608 483.527 695.156 483.075 694.889 482.002C692.647 472.849 690.672 463.583 688.964 454.317C688.804 453.243 687.256 453.695 687.417 454.769Z" fill="#304352"/>
<path d="M705.457 460.758C710.101 457.198 714.104 452.96 717.574 448.045C718.214 447.197 716.826 446.35 716.186 447.197C712.93 451.83 709.087 455.899 704.657 459.289C703.856 459.967 704.657 461.436 705.457 460.758Z" fill="#304352"/>
<path d="M700.494 436.576C701.935 441.435 702.789 447.367 706.312 451.04C707.059 451.831 708.18 450.588 707.432 449.853C704.176 446.407 703.322 440.587 701.988 436.124C701.721 435.107 700.173 435.559 700.494 436.576Z" fill="#304352"/>
<path d="M660.943 518.727C657.687 516.015 655.712 512.229 654.057 508.274C652.189 503.641 650.588 498.895 649.147 494.093C646.425 484.883 644.45 475.391 643.275 465.843C640.874 445.842 642.795 425.615 640.5 405.557C640.02 405.727 639.486 405.84 639.005 406.009C644.983 420.247 658.968 428.779 670.604 437.254C670.497 436.858 670.39 436.463 670.337 436.067C668.735 438.497 667.134 440.926 665.533 443.356C665.159 443.921 665.64 444.655 666.227 444.655C668.308 444.655 670.123 444.373 672.098 443.638C671.778 443.525 671.511 443.356 671.191 443.243C673.166 446.463 675.14 449.684 677.115 452.904C677.169 452.565 677.222 452.226 677.222 451.887C676.261 452.848 675.461 453.921 674.66 455.108C674.393 455.503 674.66 456.294 675.14 456.351C679.517 457.029 681.065 461.436 682.186 465.391C682.506 466.408 684.054 466.012 683.734 464.939C682.399 460.475 680.478 455.447 675.567 454.712C675.728 455.108 675.888 455.56 676.048 455.955C676.742 454.825 677.436 454.034 678.343 453.13C678.61 452.904 678.663 452.396 678.45 452.113C676.475 448.893 674.5 445.672 672.525 442.452C672.365 442.169 671.991 441.943 671.618 442.056C669.803 442.678 668.042 443.017 666.173 442.96C666.387 443.412 666.654 443.808 666.867 444.26C668.469 441.83 670.07 439.401 671.671 436.971C671.938 436.576 671.724 436.067 671.404 435.785C659.982 427.479 646.265 419.174 640.393 405.162C640.073 404.427 638.792 404.766 638.899 405.614C641.247 426.406 639.166 447.424 641.941 468.159C643.275 478.16 645.464 487.991 648.506 497.539C650.962 505.28 653.524 514.715 659.768 519.97C660.622 520.591 661.743 519.405 660.943 518.727Z" fill="#304352"/>
<path d="M639.326 407.252C643.649 419.908 647.279 433.242 653.096 445.277C655.979 451.209 659.128 457.029 661.85 463.074C664.786 469.628 667.401 476.295 670.07 482.906C670.443 483.923 671.831 483.019 671.457 482.058C668.949 475.73 666.387 469.402 663.665 463.187C660.996 457.085 657.9 451.266 654.911 445.333C648.933 433.242 645.25 419.682 640.82 406.857C640.5 405.783 638.952 406.235 639.326 407.252Z" fill="#304352"/>
<path d="M641.354 450.192C647.119 450.927 653.417 451.266 657.794 455.842C658.541 456.633 659.662 455.39 658.914 454.656C654.217 449.797 647.546 449.345 641.354 448.554C640.34 448.384 640.34 450.079 641.354 450.192Z" fill="#304352"/>
<path d="M656.779 427.309C655.819 430.982 655.178 434.767 654.911 438.61C654.698 441.887 654.324 445.729 655.392 448.893C655.712 449.91 657.26 449.458 656.94 448.441C655.925 445.446 656.299 441.717 656.512 438.553C656.779 434.881 657.42 431.264 658.327 427.705C658.594 426.688 657.046 426.236 656.779 427.309Z" fill="#304352"/>
<path d="M644.983 480.985C649.147 481.098 653.15 481.154 657.206 482.341C661.209 483.527 665.159 484.77 669.162 486.013C670.176 486.296 670.603 484.657 669.589 484.375C665.319 483.075 661.103 481.663 656.779 480.476C652.883 479.403 648.987 479.459 644.983 479.346C643.969 479.233 643.969 480.928 644.983 480.985Z" fill="#304352"/>
<path d="M703.376 517.145C706.952 516.636 710.475 516.636 714.051 517.145C713.891 516.749 713.731 516.297 713.57 515.901C713.25 516.41 710.048 516.467 709.407 516.523C707.966 516.749 706.472 516.975 705.03 517.314C704.817 517.37 703.376 517.54 703.322 517.71C703.429 517.427 705.564 517.484 705.884 517.484C707.432 517.484 708.98 517.653 710.528 517.766C710.528 517.201 710.528 516.636 710.528 516.071C709.194 516.015 708.019 516.184 706.685 516.579C705.831 516.805 705.991 518.218 706.899 518.218C708.98 518.218 710.848 517.766 712.877 517.201C713.891 516.919 713.464 515.28 712.45 515.562C710.635 516.071 708.82 516.523 706.899 516.523C706.952 517.088 707.059 517.653 707.112 518.162C708.233 517.823 709.354 517.71 710.528 517.71C711.542 517.71 711.542 516.071 710.528 516.014C708.179 515.901 704.764 514.997 702.629 516.41C701.775 516.975 700.547 518.444 701.668 519.348C702.148 519.744 702.682 519.518 703.269 519.461C704.87 519.122 706.418 518.727 708.019 518.444C709.888 518.105 713.624 518.614 714.905 516.749C715.172 516.353 714.905 515.562 714.424 515.506C710.688 514.941 707.059 514.941 703.322 515.449C702.362 515.562 702.362 517.258 703.376 517.145Z" fill="#304352"/>
<path d="M652.189 518.218C652.936 517.992 653.684 517.823 654.431 517.766C654.804 517.766 655.125 517.71 655.498 517.766C655.658 517.766 656.406 517.71 656.459 517.766C656.406 517.484 656.299 517.201 656.246 516.919C656.246 516.975 656.192 517.032 656.192 517.032C656.513 516.862 656.833 516.636 657.153 516.467C657.1 516.467 657.046 516.467 657.046 516.467C657.206 516.636 657.42 516.862 657.58 517.032C657.58 516.975 657.58 516.919 657.527 516.919C657.26 515.845 655.765 516.297 655.979 517.371C655.979 517.427 655.979 517.484 656.032 517.484C656.085 517.766 656.352 517.992 656.566 518.049C656.619 518.049 656.673 518.049 656.673 518.049C657.1 518.162 657.473 517.936 657.633 517.484C657.633 517.427 657.687 517.371 657.687 517.371C657.793 517.088 657.687 516.749 657.473 516.523C656.886 515.902 655.605 516.015 654.858 516.015C653.79 516.015 652.67 516.241 651.655 516.523C650.801 516.862 651.228 518.501 652.189 518.218Z" fill="#304352"/>
<path d="M653.417 529.574C672.899 533.134 693.128 534.829 712.343 528.727C713.303 528.388 712.93 526.806 711.916 527.088C693.021 533.078 673.059 531.439 653.844 527.936C652.83 527.766 652.403 529.405 653.417 529.574Z" fill="#304352"/>
<path d="M720.509 552.796C754.723 552.796 788.989 552.796 823.203 552.796C824.217 552.796 824.217 551.101 823.203 551.101C788.989 551.101 754.723 551.101 720.509 551.101C719.442 551.101 719.442 552.796 720.509 552.796Z" fill="#304352"/>
<path d="M694.622 589.125C726.861 589.125 759.153 589.125 791.391 589.125C792.405 589.125 792.405 587.43 791.391 587.43C759.153 587.43 726.861 587.43 694.622 587.43C693.608 587.43 693.608 589.125 694.622 589.125Z" fill="#304352"/>
<path d="M709.3 588.956C705.457 592.346 701.614 595.68 697.825 599.07C697.024 599.748 698.145 600.934 698.946 600.256C702.789 596.866 706.632 593.533 710.421 590.143C711.222 589.465 710.048 588.222 709.3 588.956Z" fill="#304352"/>
<path d="M698.305 600.878C699.319 600.878 699.319 599.182 698.305 599.182C697.291 599.182 697.291 600.878 698.305 600.878Z" fill="#304352"/>
<path d="M714.585 599.182C682.079 599.182 649.574 599.182 617.068 599.182C616.054 599.182 616.054 600.878 617.068 600.878C649.574 600.878 682.079 600.878 714.585 600.878C715.599 600.878 715.599 599.182 714.585 599.182Z" fill="#304352"/>
<path d="M616.908 616.697C622.673 611.613 628.597 606.754 634.682 602.064C635.483 601.443 634.736 599.974 633.882 600.595C627.69 605.341 621.659 610.313 615.787 615.455C614.987 616.189 616.108 617.375 616.908 616.697Z" fill="#304352"/>
<path d="M130.982 585.849C168.665 585.849 206.348 585.849 244.031 585.849C254.706 585.849 265.38 585.849 276.055 585.849C277.07 585.849 277.07 584.154 276.055 584.154C238.373 584.154 200.69 584.154 163.007 584.154C152.332 584.154 141.657 584.154 130.982 584.154C129.968 584.154 129.968 585.849 130.982 585.849Z" fill="#304352"/>
<path d="M150.678 600.595C155.748 596.019 160.872 591.442 165.943 586.865C166.743 586.131 165.569 584.944 164.822 585.679C159.751 590.256 154.627 594.832 149.557 599.409C148.756 600.087 149.93 601.33 150.678 600.595Z" fill="#304352"/>
<path d="M132.317 602.234C167.331 602.234 202.345 602.234 237.359 602.234C238.373 602.234 238.373 600.539 237.359 600.539C202.345 600.539 167.331 600.539 132.317 600.539C131.302 600.539 131.302 602.234 132.317 602.234Z" fill="#304352"/>
<path d="M225.136 601.895C221.133 606.641 217.023 611.274 212.86 615.907C212.166 616.698 213.287 617.884 213.98 617.093C218.144 612.46 222.2 607.827 226.257 603.081C227.004 602.29 225.83 601.104 225.136 601.895Z" fill="#304352"/>
<path d="M197.808 618.619C228.605 618.619 259.349 618.619 290.147 618.619C291.161 618.619 291.161 616.924 290.147 616.924C259.349 616.924 228.605 616.924 197.808 616.924C196.794 616.924 196.794 618.619 197.808 618.619Z" fill="#304352"/>
<path d="M175.977 557.429C189.001 557.429 202.024 557.429 215.101 557.429C216.115 557.429 216.115 555.734 215.101 555.734C202.078 555.734 189.054 555.734 175.977 555.734C174.963 555.734 174.963 557.429 175.977 557.429Z" fill="#304352"/>
<path d="M224.976 562.966C228.979 562.966 233.035 562.966 237.038 562.966C238.053 562.966 238.053 561.271 237.038 561.271C233.035 561.271 228.979 561.271 224.976 561.271C223.908 561.271 223.908 562.966 224.976 562.966Z" fill="#304352"/>
<path d="M195.993 260.86C195.993 270.07 195.993 279.336 195.993 288.545C195.993 289.619 197.594 289.619 197.594 288.545C197.594 279.336 197.594 270.07 197.594 260.86C197.594 259.787 195.993 259.787 195.993 260.86Z" fill="#304352"/>
<path d="M169.145 289.901C190.602 289.901 212.059 289.901 233.516 289.901C234.53 289.901 234.53 288.206 233.516 288.206C212.059 288.206 190.602 288.206 169.145 288.206C168.131 288.206 168.131 289.901 169.145 289.901Z" fill="#304352"/>
<path d="M214.087 290.693C214.087 297.812 214.087 304.874 214.087 311.993C214.087 313.067 215.688 313.067 215.688 311.993C215.688 304.874 215.688 297.812 215.688 290.693C215.688 289.563 214.087 289.563 214.087 290.693Z" fill="#304352"/>
<path d="M196.313 314.931C213.393 314.931 230.527 314.931 247.607 314.931C248.621 314.931 248.621 313.236 247.607 313.236C230.527 313.236 213.393 313.236 196.313 313.236C195.246 313.236 195.246 314.931 196.313 314.931Z" fill="#304352"/>
<path d="M627.049 241.029C627.049 243.289 627.049 245.493 627.049 247.753C627.049 248.826 628.651 248.826 628.651 247.753C628.651 245.493 628.651 243.289 628.651 241.029C628.651 239.956 627.049 239.956 627.049 241.029Z" fill="#304352"/>
<path d="M628.33 242.385C665.052 242.385 701.775 242.385 738.497 242.385C739.511 242.385 739.511 240.69 738.497 240.69C701.775 240.69 665.052 240.69 628.33 240.69C627.316 240.69 627.316 242.385 628.33 242.385Z" fill="#304352"/>
<path d="M629.291 248.6C665.693 248.6 702.095 248.6 738.443 248.6C739.457 248.6 739.457 246.905 738.443 246.905C702.041 246.905 665.64 246.905 629.291 246.905C628.277 246.905 628.277 248.6 629.291 248.6Z" fill="#304352"/>
<path d="M738.23 241.029C738.016 243.346 738.123 245.662 738.496 247.979C738.657 249.052 740.204 248.6 740.044 247.527C739.671 245.38 739.617 243.176 739.831 241.029C739.938 239.956 738.336 239.956 738.23 241.029Z" fill="#304352"/>
<path d="M635.856 241.086C635.856 225.322 635.856 209.559 635.856 193.795C635.856 192.722 634.255 192.722 634.255 193.795C634.255 209.559 634.255 225.322 634.255 241.086C634.255 242.216 635.856 242.216 635.856 241.086Z" fill="#304352"/>
<path d="M635.856 194.077C640.393 192.156 645.197 192.439 649.414 195.094C650.321 195.659 651.122 194.19 650.214 193.625C645.677 190.801 640.286 190.349 635.429 192.439C634.469 192.834 634.896 194.473 635.856 194.077Z" fill="#304352"/>
<path d="M649.147 194.699C649.147 209.841 649.147 225.04 649.147 240.182C649.147 241.255 650.748 241.255 650.748 240.182C650.748 225.04 650.748 209.841 650.748 194.699C650.748 193.626 649.147 193.626 649.147 194.699Z" fill="#304352"/>
<path d="M650.961 207.355C654.217 205.942 657.633 206.168 660.676 208.146C661.583 208.711 662.384 207.242 661.476 206.677C658.114 204.53 654.164 204.134 650.535 205.716C649.574 206.112 650.001 207.75 650.961 207.355Z" fill="#304352"/>
<path d="M660.355 208.089C660.355 218.711 660.355 229.277 660.355 239.899C660.355 240.973 661.957 240.973 661.957 239.899C661.957 229.277 661.957 218.711 661.957 208.089C661.957 207.016 660.355 207.016 660.355 208.089Z" fill="#304352"/>
<path d="M636.07 207.073C640.607 205.999 645.09 206.338 649.467 207.977C650.428 208.316 650.855 206.677 649.894 206.338C645.25 204.587 640.447 204.361 635.643 205.434C634.682 205.66 635.109 207.299 636.07 207.073Z" fill="#304352"/>
<path d="M649.841 226.678C653.257 225.718 656.673 225.605 660.142 226.396C661.156 226.622 661.583 224.983 660.569 224.757C656.833 223.909 653.15 223.966 649.414 225.04C648.453 225.322 648.826 226.961 649.841 226.678Z" fill="#304352"/>
<path d="M680.531 240.521C680.531 237.357 680.531 234.193 680.531 231.029C680.531 229.955 678.93 229.955 678.93 231.029C678.93 234.193 678.93 237.357 678.93 240.521C678.93 241.594 680.531 241.594 680.531 240.521Z" fill="#304352"/>
<path d="M679.731 231.537C697.078 231.537 714.371 231.537 731.718 231.537C732.732 231.537 732.732 229.842 731.718 229.842C714.371 229.842 697.078 229.842 679.731 229.842C678.663 229.842 678.663 231.537 679.731 231.537Z" fill="#304352"/>
<path d="M732.252 232.441C733.266 232.441 733.266 230.746 732.252 230.746C731.184 230.746 731.184 232.441 732.252 232.441Z" fill="#304352"/>
<path d="M731.451 231.594C731.451 234.475 731.451 237.357 731.451 240.238C731.451 241.312 733.052 241.312 733.052 240.238C733.052 237.357 733.052 234.475 733.052 231.594C733.052 230.52 731.451 230.52 731.451 231.594Z" fill="#304352"/>
<path d="M690.619 230.407C690.619 227.413 690.619 224.475 690.619 221.48C690.619 220.407 689.018 220.407 689.018 221.48C689.018 224.475 689.018 227.413 689.018 230.407C689.018 231.481 690.619 231.481 690.619 230.407Z" fill="#304352"/>
<path d="M689.818 222.045C706.845 222.045 723.872 222.045 740.952 222.045C741.966 222.045 741.966 220.35 740.952 220.35C723.925 220.35 706.898 220.35 689.818 220.35C688.804 220.35 688.804 222.045 689.818 222.045Z" fill="#304352"/>
<path d="M740.418 221.197C740.418 223.683 740.418 226.17 740.418 228.656C740.418 229.729 742.019 229.729 742.019 228.656C742.019 226.17 742.019 223.683 742.019 221.197C742.019 220.067 740.418 220.067 740.418 221.197Z" fill="#304352"/>
<path d="M731.131 231.819C734.227 231.819 737.322 231.819 740.418 231.819C741.432 231.819 741.432 230.124 740.418 230.124C737.322 230.124 734.227 230.124 731.131 230.124C730.063 230.124 730.063 231.819 731.131 231.819Z" fill="#304352"/>
<path d="M740.311 228.712C740.204 229.333 740.204 229.899 740.365 230.464C740.471 230.916 740.952 231.198 741.325 231.029C741.752 230.916 742.019 230.407 741.859 230.012C741.806 229.729 741.752 229.39 741.806 229.164C741.859 228.712 741.699 228.203 741.272 228.147C740.898 228.034 740.365 228.26 740.311 228.712Z" fill="#304352"/>
<path d="M701.988 221.593C702.682 224.475 702.842 227.412 702.468 230.407C702.362 231.481 703.963 231.481 704.07 230.407C704.443 227.299 704.23 224.192 703.536 221.141C703.269 220.124 701.721 220.576 701.988 221.593Z" fill="#304352"/>
<path d="M714.051 231.424C714.424 234.249 714.211 237.017 713.57 239.729C713.303 240.803 714.851 241.255 715.118 240.182C715.866 237.131 716.026 234.079 715.599 230.972C715.492 229.898 713.944 230.35 714.051 231.424Z" fill="#304352"/>
<path d="M703.589 300.184C703.589 304.648 703.589 309.055 703.589 313.519C703.589 314.592 705.19 314.592 705.19 313.519C705.19 309.055 705.19 304.648 705.19 300.184C705.19 299.054 703.589 299.054 703.589 300.184Z" fill="#304352"/>
<path d="M691.206 313.745C701.881 313.745 712.556 313.745 723.231 313.745C724.245 313.745 724.245 312.049 723.231 312.049C712.556 312.049 701.881 312.049 691.206 312.049C690.192 312.049 690.192 313.745 691.206 313.745Z" fill="#304352"/>
<path d="M673.005 123.678C673.005 133.848 673.005 144.075 673.005 154.245C673.005 155.319 674.607 155.319 674.607 154.245C674.607 144.075 674.607 133.848 674.607 123.678C674.607 122.605 673.005 122.605 673.005 123.678Z" fill="#304352"/>
<path d="M675.034 123.622C687.203 123.622 699.319 123.622 711.489 123.622C712.503 123.622 712.503 121.927 711.489 121.927C699.319 121.927 687.203 121.927 675.034 121.927C674.019 121.927 674.019 123.622 675.034 123.622Z" fill="#304352"/>
<path d="M711.542 123.396C711.542 133.227 711.542 143.058 711.542 152.833C711.542 153.906 713.143 153.906 713.143 152.833C713.143 143.002 713.143 133.171 713.143 123.396C713.143 122.322 711.542 122.322 711.542 123.396Z" fill="#304352"/>
<path d="M673.592 155.206C686.509 155.206 699.426 155.206 712.343 155.206C713.357 155.206 713.357 153.511 712.343 153.511C699.426 153.511 686.509 153.511 673.592 153.511C672.578 153.511 672.578 155.206 673.592 155.206Z" fill="#304352"/>
<path d="M676.582 127.182C676.582 134.922 676.582 142.606 676.582 150.347C676.582 151.42 678.183 151.42 678.183 150.347C678.183 142.606 678.183 134.922 678.183 127.182C678.183 126.108 676.582 126.108 676.582 127.182Z" fill="#304352"/>
<path d="M677.756 127.86C687.737 127.86 697.771 127.86 707.753 127.86C708.767 127.86 708.767 126.164 707.753 126.164C697.771 126.164 687.737 126.164 677.756 126.164C676.742 126.164 676.742 127.86 677.756 127.86Z" fill="#304352"/>
<path d="M707.165 127.182C707.165 134.357 707.165 141.476 707.165 148.652C707.165 149.725 708.767 149.725 708.767 148.652C708.767 141.476 708.767 134.357 708.767 127.182C708.767 126.108 707.165 126.108 707.165 127.182Z" fill="#304352"/>
<path d="M677.756 151.194C687.684 151.194 697.611 151.194 707.592 151.194C708.607 151.194 708.607 149.499 707.592 149.499C697.665 149.499 687.737 149.499 677.756 149.499C676.742 149.499 676.742 151.194 677.756 151.194Z" fill="#304352"/>
<path d="M696.651 141.024C692.434 137.634 698.732 130.572 701.668 134.809C704.39 138.651 699.96 143.284 696.17 141.137C695.263 140.629 694.462 142.098 695.37 142.606C697.825 144.019 701.081 143.623 702.842 141.194C704.657 138.764 704.443 134.922 702.148 132.888C699.746 130.798 696.33 132.21 694.676 134.583C692.914 137.182 693.448 140.572 695.85 142.493C696.704 143.115 697.451 141.646 696.651 141.024Z" fill="#304352"/>
<path d="M691.58 149.386C691.366 144.923 696.544 143.228 699.8 143.228C703.803 143.228 705.084 147.013 706.738 150.233C707.219 151.194 708.607 150.346 708.126 149.386C707.005 147.239 705.938 144.414 704.07 142.832C702.362 141.42 700.227 141.476 698.198 141.702C694.462 142.154 689.712 144.584 689.979 149.386C690.032 150.459 691.633 150.459 691.58 149.386Z" fill="#304352"/>
<path d="M678.45 145.318C679.624 143.002 683.947 143.905 685.548 144.809C687.203 145.77 688.164 147.352 688.591 149.273C688.804 150.347 690.352 149.895 690.139 148.821C689.498 145.883 687.577 143.566 684.801 142.606C682.453 141.815 678.45 141.758 677.115 144.414C676.581 145.431 677.969 146.279 678.45 145.318Z" fill="#304352"/>
<path d="M681.545 141.137C679.784 141.081 680.211 138.312 680.958 137.352C681.919 136.109 683.84 135.939 684.961 137.125C685.869 138.03 686.136 139.725 685.388 140.798C684.855 141.589 684.054 141.759 683.2 141.759C682.88 141.759 681.545 141.815 681.332 141.533C680.745 140.629 679.357 141.476 679.944 142.38C680.585 143.397 681.919 143.454 682.986 143.454C684.267 143.51 685.495 143.171 686.402 142.154C688.11 140.177 687.523 136.843 685.495 135.374C683.307 133.849 680.264 134.696 679.143 137.182C678.183 139.386 678.877 142.719 681.545 142.776C682.613 142.889 682.613 141.194 681.545 141.137Z" fill="#304352"/>
<path d="M354.89 273.856C357.399 276.003 360.495 275.099 362.843 273.008C366.152 270.127 367.807 265.211 368.448 260.861C370.102 249.787 365.886 239.278 364.231 228.543C361.242 208.598 369.462 187.241 384.727 175.263C392.146 169.387 404.369 163.116 401.487 151.081C401.22 150.008 399.672 150.46 399.939 151.533C402.661 163.003 390.064 168.822 383.179 174.359C376.988 179.388 371.97 185.885 368.394 193.174C364.871 200.236 362.736 208.09 362.149 216.056C361.455 225.718 363.857 234.701 365.832 244.023C367.007 249.673 367.754 255.606 366.74 261.369C366.259 264.025 365.405 266.623 364.071 268.94C362.576 271.426 359 275.268 356.011 272.726C355.264 271.991 354.09 273.178 354.89 273.856Z" fill="#304352"/>
<path d="M400.9 150.403C394.868 150.685 389.584 145.713 389.904 139.16C390.225 132.323 397.857 125.995 404.316 127.803C410.08 129.442 414.51 136.165 413.069 142.437C411.628 148.708 404.956 150.064 399.832 150.968C398.818 151.137 399.245 152.776 400.259 152.606C406.878 151.476 414.564 148.99 414.991 140.515C415.311 133.623 409.493 126.165 402.821 125.882C395.776 125.543 388.677 131.645 388.303 139.216C387.983 146.674 394.014 152.437 400.9 152.154C401.914 152.041 401.914 150.346 400.9 150.403Z" fill="#304352"/>
<path d="M393 145.996C395.562 139.16 409.226 138.03 410.827 146.166C411.041 147.239 412.589 146.787 412.375 145.714C410.4 135.77 394.548 137.239 391.452 145.544C391.079 146.561 392.626 146.957 393 145.996Z" fill="#304352"/>
<path d="M401.006 138.368C399.886 137.521 399.459 135.882 400.206 134.639C401.06 133.114 402.875 132.944 404.262 133.735C405.33 134.357 405.543 135.769 404.903 136.843C404.102 138.142 402.394 138.312 401.06 137.973C400.046 137.747 399.619 139.385 400.633 139.611C402.768 140.12 405.33 139.611 406.397 137.408C407.358 135.43 406.664 133.057 404.743 132.097C402.608 131.08 400.046 131.532 398.818 133.735C397.59 135.826 398.391 138.425 400.206 139.781C401.06 140.515 401.86 139.046 401.006 138.368Z" fill="#304352"/>
<path d="M423.637 120.967C429.242 105.26 445.361 97.2365 460.359 96.163C470.287 95.4285 480.215 97.067 489.929 99.0445C499.11 100.966 508.664 104.017 518.058 103.678C525.797 103.395 533.75 100.005 537.379 92.3775C537.86 91.417 536.472 90.5695 535.992 91.53C531.775 100.344 522.061 102.604 513.467 101.87C503.433 101.022 493.559 97.858 483.684 96.1065C467.672 93.2815 450.592 92.886 436.341 102.435C429.882 106.785 424.758 112.887 422.036 120.515C421.716 121.532 423.264 121.984 423.637 120.967Z" fill="#304352"/>
<path d="M543.838 91.417C557.929 91.417 572.073 91.417 586.164 91.417C587.178 91.417 587.178 89.722 586.164 89.722C572.073 89.722 557.929 89.722 543.838 89.722C542.77 89.722 542.77 91.417 543.838 91.417Z" fill="#304352"/>
<path d="M543.251 89.609C540.742 87.01 543.464 82.603 545.439 80.6255C547.841 78.1395 551.15 77.179 554.353 78.535C554.62 78.648 555.153 78.4785 555.26 78.1395C557.182 73.3935 561.718 69.947 566.682 70.173C571.86 70.399 576.236 74.5235 577.517 79.7215C577.624 80.23 578.265 80.5125 578.692 80.23C581.04 78.7045 583.442 80.5125 584.403 82.829C585.257 84.976 585.043 87.4055 584.83 89.722C584.723 90.7955 586.324 90.7955 586.431 89.722C586.751 86.332 586.965 82.3205 584.403 79.7215C582.588 77.9135 580.079 77.3485 577.944 78.761C578.318 78.9305 578.745 79.1 579.119 79.2695C577.678 73.6195 573.087 69.0995 567.483 68.5345C561.718 67.913 556.167 71.6985 553.926 77.292C554.246 77.179 554.513 77.0095 554.833 76.8965C550.563 75.0885 546.08 77.0095 543.304 80.7385C541.222 83.507 539.408 87.9705 542.237 90.852C542.877 91.5865 543.998 90.4 543.251 89.609Z" fill="#304352"/>
<path d="M573.621 97.9145C580.186 97.1235 584.029 104.412 585.043 110.288C586.111 116.334 585.097 122.379 584.51 128.425C583.602 137.521 584.189 148.482 592.356 153.793C593.21 154.358 594.064 152.889 593.156 152.324C582.001 145.092 586.645 128.99 587.072 117.916C587.392 109.497 584.243 94.9765 573.621 96.2195C572.607 96.3325 572.607 98.0275 573.621 97.9145Z" fill="#304352"/>
<path d="M601.216 144.244C596.412 157.07 591.662 169.895 586.858 182.664C586.485 183.681 588.032 184.134 588.406 183.117C593.21 170.291 597.96 157.466 602.764 144.697C603.138 143.68 601.59 143.284 601.216 144.244Z" fill="#304352"/>
<path d="M601.963 145.318C610.29 144.866 618.563 145.092 626.836 146.109C626.569 145.77 626.302 145.375 626.089 145.036C622.139 158.426 618.937 171.986 616.375 185.716C616.161 186.789 617.709 187.241 617.922 186.168C620.484 172.438 623.74 158.878 627.637 145.488C627.797 144.923 627.37 144.471 626.889 144.414C618.616 143.397 610.343 143.171 602.017 143.623C600.949 143.68 600.949 145.375 601.963 145.318Z" fill="#304352"/>
<path d="M587.232 184.303C592.142 184.529 596.999 184.812 601.91 185.151C606.66 185.433 611.731 185.32 616.214 187.241C617.175 187.637 617.602 185.998 616.641 185.603C612.371 183.738 607.514 183.851 602.977 183.569C597.747 183.23 592.516 182.947 587.232 182.664C586.218 182.551 586.218 184.247 587.232 184.303Z" fill="#304352"/>
<path d="M602.711 150.968C607.835 151.081 612.959 151.477 618.029 152.211C619.043 152.381 619.47 150.742 618.456 150.573C613.225 149.782 607.995 149.33 602.711 149.217C601.643 149.217 601.643 150.912 602.711 150.968Z" fill="#304352"/>
<path d="M601.163 154.81C604.045 154.697 606.927 154.753 609.809 155.036C610.824 155.149 610.824 153.454 609.809 153.341C606.927 153.059 604.045 152.946 601.163 153.115C600.149 153.172 600.149 154.866 601.163 154.81Z" fill="#304352"/>
<path d="M597.64 162.438C603.778 162.042 609.596 161.477 615.627 163.059C616.641 163.342 617.068 161.703 616.054 161.421C609.863 159.839 603.938 160.347 597.64 160.743C596.572 160.799 596.572 162.494 597.64 162.438Z" fill="#304352"/>
<path d="M597.907 167.409C601.429 167.127 604.952 167.127 608.475 167.466C609.489 167.579 609.489 165.884 608.475 165.771C604.952 165.432 601.429 165.432 597.907 165.715C596.893 165.828 596.839 167.522 597.907 167.409Z" fill="#304352"/>
<path d="M595.131 173.964C599.935 173.625 604.632 173.794 609.382 174.472C610.396 174.641 610.396 172.947 609.382 172.777C604.632 172.099 599.882 171.93 595.131 172.269C594.117 172.325 594.117 174.02 595.131 173.964Z" fill="#304352"/>
<path d="M329.537 98.1405C331.672 101.191 334.768 102.434 337.917 103.96C341.653 105.768 345.069 108.197 347.845 111.418C354.143 118.593 356.225 128.255 356.385 137.803C356.759 155.714 351.047 174.472 358.733 191.422C359.16 192.382 360.548 191.535 360.121 190.574C352.062 172.72 359.214 152.719 357.826 133.961C357.239 125.825 355.051 117.859 350.087 111.531C347.738 108.536 344.856 105.937 341.653 104.016C338.077 101.869 333.434 100.909 330.925 97.293C330.338 96.4455 328.95 97.293 329.537 98.1405Z" fill="#304352"/>
<path d="M311.283 74.241C309.895 72.3765 310.002 71.077 311.603 70.3425C312.297 69.947 312.991 69.6645 313.792 69.495C314.806 69.269 315.927 69.2125 316.994 69.269C320.197 69.4385 323.453 70.3425 323.292 74.467C323.132 79.326 322.278 84.1285 321.157 88.818C319.983 93.6205 318.542 98.31 316.994 103C316.674 104.017 316.407 105.203 315.927 106.164C314.966 107.915 313.471 107.859 311.87 107.859C309.895 107.859 307.387 108.141 305.465 107.576C303.33 106.955 302.85 104.695 304.931 103.226C305.892 102.548 307.227 102.435 308.347 102.435C309.789 102.435 311.069 102.774 312.297 101.757C314.646 99.8355 315.019 94.6375 315.553 91.869C316.354 87.8575 317.688 82.942 317.421 78.874C317.208 75.7665 314.325 75.6535 312.244 74.354C311.336 73.789 310.536 75.258 311.443 75.823C313.098 76.84 315.5 76.953 315.82 79.2695C316.194 81.9815 315.126 85.654 314.646 88.366C314.165 90.965 313.632 93.564 312.991 96.1065C312.511 98.0275 312.297 100.344 309.895 100.853C308.934 101.079 307.76 100.74 306.746 100.909C304.184 101.305 301.676 103.226 302.049 106.277C302.53 110.119 306.853 109.441 309.522 109.554C312.831 109.667 316.14 110.175 317.635 106.446C319.503 101.813 320.837 96.728 322.118 91.9255C323.453 86.9535 324.467 81.812 324.84 76.6705C325.16 72.659 325.321 69.4385 321.104 68.365C317.421 67.4045 312.35 66.9525 309.468 70.1165C307.547 72.207 308.027 76.3315 311.336 76.049C312.297 75.823 312.297 74.128 311.283 74.241Z" fill="#304352"/>
<path d="M304.825 80.2865C304.771 80.23 304.718 80.1735 304.664 80.117C304.451 79.891 304.131 79.8345 303.864 79.891C302.316 80.456 301.729 83.1115 301.302 84.5805C300.555 87.2925 300.394 90.061 300.768 92.886C300.875 93.9595 302.476 93.9595 302.369 92.886C302.156 90.9085 302.102 88.9875 302.423 87.01C302.583 85.993 304.237 82.038 303.65 81.473C304.398 82.264 305.518 81.0775 304.825 80.2865Z" fill="#304352"/>
<path d="M299.434 74.0715C294.523 80.682 291.374 88.6485 293.456 97.1235C293.723 98.197 295.271 97.745 295.004 96.6715C293.082 88.8745 296.071 81.36 300.555 75.258C301.195 74.4105 300.074 73.224 299.434 74.0715Z" fill="#304352"/>
<path d="M292.709 66.444C284.542 77.8005 280.699 92.1515 282.087 106.389C282.194 107.463 283.795 107.463 283.688 106.389C282.354 92.434 286.037 78.4785 294.096 67.2915C294.683 66.444 293.296 65.5965 292.709 66.444Z" fill="#304352"/>
<path d="M281.34 124.187C277.23 126.278 273.387 129.159 270.344 132.775C267.249 136.504 266.288 140.515 265.807 145.374C264.74 156.505 260.844 168.709 250.275 173.398C249.315 173.794 249.742 175.432 250.702 175.037C259.136 171.308 264.046 162.833 266.128 153.68C267.355 148.199 266.768 141.702 269.49 136.787C272.266 131.758 277.283 128.086 282.14 125.6C283.101 125.204 282.3 123.735 281.34 124.187Z" fill="#304352"/>
<path d="M227.698 203.4C224.175 203.513 220.172 201.931 218.891 198.089C217.396 193.569 220.599 189.162 224.015 186.846C230.633 182.325 239.547 180.574 247.233 180.461C251.129 180.404 255.56 180.461 258.976 182.664C263.352 185.489 264.1 190.8 260.684 194.812C255.506 200.914 246.593 201.536 239.44 202.101C238.426 202.157 238.426 203.852 239.44 203.796C246.593 203.231 254.599 202.553 260.363 197.468C265.647 192.834 266.021 185.15 259.83 181.139C253.425 177.014 243.657 178.37 236.718 179.952C230.046 181.478 220.919 184.246 217.93 191.535C214.834 198.993 220.759 205.208 227.804 204.982C228.765 205.038 228.765 203.344 227.698 203.4Z" fill="#304352"/>
<path d="M227.431 204.078C226.096 206.338 224.815 208.598 223.481 210.802C223.054 211.536 223.908 212.327 224.602 211.988C227.858 210.124 231.381 208.937 234.69 207.299C236.505 206.451 238.266 205.434 239.974 204.304C240.561 203.909 241.255 203.683 241.415 202.892C241.522 202.496 241.308 201.931 240.881 201.875C240.828 201.875 240.775 201.875 240.721 201.818C240.348 201.762 239.814 201.931 239.761 202.383C239.761 202.44 239.761 202.44 239.761 202.496C239.547 203.57 241.095 204.022 241.308 202.948C241.308 202.892 241.308 202.892 241.308 202.835C240.988 203.005 240.668 203.231 240.348 203.4C240.401 203.4 240.454 203.4 240.508 203.457C240.348 203.118 240.134 202.779 239.974 202.44C239.814 203.005 236.825 204.304 236.184 204.7C234.583 205.604 232.929 206.338 231.22 207.073C228.712 208.146 226.257 209.163 223.908 210.519C224.282 210.915 224.655 211.31 225.029 211.706C226.363 209.446 227.644 207.186 228.979 204.982C229.352 204.022 227.965 203.174 227.431 204.078Z" fill="#304352"/>
<path d="M229.192 194.304C229.139 194.191 229.139 193.965 229.299 193.965C229.726 193.965 229.246 194.53 229.192 194.586C228.925 194.756 228.018 194.982 228.071 194.417C228.125 193.739 229.352 193.004 229.566 194.021C229.619 194.304 229.406 194.643 229.139 194.699C228.979 194.756 228.872 194.756 228.765 194.643C228.712 194.586 228.605 194.53 228.712 194.53C229.726 194.586 229.726 192.891 228.712 192.835C227.644 192.722 226.844 193.908 227.111 194.982C227.378 196.055 228.552 196.62 229.513 196.338C230.473 196.055 231.221 195.151 231.221 194.078C231.221 193.004 230.42 192.1 229.513 191.874C227.538 191.366 225.456 194.417 227.164 195.942C228.552 197.185 231.327 196.055 231.167 193.965C231.06 192.835 229.886 191.931 228.819 192.326C227.751 192.722 227.324 194.134 227.858 195.151C228.285 196.112 229.673 195.264 229.192 194.304Z" fill="#304352"/>
<path d="M240.988 192.778C240.935 192.439 240.775 191.987 241.095 191.704C241.255 191.535 241.522 191.535 241.735 191.535C242.269 191.648 242.162 192.269 241.789 192.552C241.575 192.721 241.362 192.721 241.202 192.495C241.041 192.269 241.095 192.213 241.255 192.1C241.362 192.043 241.041 192.1 241.308 192.043C241.949 191.93 240.881 192.721 241.041 192.156C240.721 193.23 242.269 193.625 242.589 192.608C242.856 191.591 241.949 190.574 240.988 190.744C239.867 190.97 239.6 192.382 240.294 193.23C240.935 194.021 242.109 193.851 242.589 192.947C243.07 192.043 242.749 190.857 241.789 190.518C240.828 190.179 239.76 190.8 239.547 191.817C239.28 192.947 240.027 194.077 241.095 194.36C243.016 194.812 244.618 192.043 243.23 190.518C242.536 189.783 241.415 189.727 240.561 190.122C239.387 190.744 239.333 192.043 239.547 193.23C239.6 194.303 241.148 193.851 240.988 192.778Z" fill="#304352"/>
<path d="M252.837 188.993C253.051 188.993 253.264 189.049 253.531 189.049V188.993C253.585 188.936 253.585 188.823 253.638 188.767C253.691 188.654 253.851 188.541 253.958 188.484C254.225 188.371 254.492 188.371 254.652 188.654C254.866 189.106 254.492 189.953 253.958 189.614C253.638 189.388 253.585 188.823 254.065 188.936C254.172 188.936 254.225 188.993 254.278 189.049C254.278 189.049 254.278 189.162 254.278 189.049C254.278 188.936 254.278 189.106 254.225 189.106C254.065 189.219 254.012 189.332 253.851 189.219C253.478 188.936 252.944 189.162 252.731 189.501C252.517 189.953 252.677 190.405 252.997 190.687C254.545 191.874 256.627 189.501 255.399 187.919C254.278 186.507 251.877 187.411 251.983 189.275C252.037 190.236 252.731 191.083 253.585 191.309C254.439 191.535 255.346 191.083 255.826 190.292C256.894 188.541 255.399 186.111 253.424 186.789C252.517 187.128 251.716 188.089 251.823 189.162C251.93 190.348 253.531 190.97 254.118 189.784C254.652 188.88 253.318 188.032 252.837 188.993Z" fill="#304352"/>
<path d="M285.076 139.725C291.641 135.883 297.352 130.798 302.103 124.639C302.743 123.792 301.622 122.605 300.982 123.453C296.338 129.498 290.734 134.47 284.275 138.256C283.368 138.764 284.168 140.233 285.076 139.725Z" fill="#304352"/>
<path d="M364.925 141.193C363.751 148.312 363.27 155.488 363.591 162.72C363.644 163.793 365.245 163.793 365.192 162.72C364.872 155.657 365.298 148.595 366.473 141.646C366.633 140.572 365.085 140.12 364.925 141.193Z" fill="#304352"/>
<path d="M356.759 306.343C356.759 297.699 360.602 289.506 367.167 284.308C367.967 283.687 367.167 282.218 366.366 282.839C359.321 288.376 355.211 297.021 355.211 306.343C355.157 307.417 356.759 307.417 356.759 306.343Z" fill="#304352"/>
<path d="M446.162 534.49C447.016 542.626 448.35 551.553 450.485 561.214C453.367 574.266 457.05 585.679 460.733 595.284C459.719 596.245 456.677 598.787 452.193 599.126C449.364 599.352 447.122 598.618 445.841 598.109C443.92 591.047 442.052 583.701 440.344 576.074C436.821 560.367 434.259 545.394 432.391 531.439C437.034 532.456 441.625 533.473 446.162 534.49Z" fill="#2C2C2C"/>
<path d="M565.989 529.179C565.295 537.258 564.12 546.242 562.145 555.903C559.37 569.576 555.687 581.442 551.951 591.442C552.485 591.951 555.527 595.001 560.224 594.775C564.28 594.606 566.896 592.064 567.536 591.442C568.764 584.606 569.938 577.712 571.112 570.819C573.674 555.734 575.97 540.874 578.158 526.184C574.101 527.145 570.045 528.162 565.989 529.179Z" fill="#2C2C2C"/>
<path d="M470.554 506.636C471.782 515.28 473.223 524.207 474.877 533.36C477.279 546.638 480.001 559.293 482.884 571.272C481.656 572.063 479.201 573.362 475.838 573.588C473.009 573.758 470.767 573.08 469.486 572.571C467.885 564.548 466.337 556.412 464.789 548.276C461.961 533.191 459.345 518.331 456.837 503.641C461.427 504.602 465.964 505.619 470.554 506.636Z" fill="#2C2C2C"/>
<path d="M545.866 504.941C544.425 513.472 543.144 522.399 542.023 531.665C540.475 544.434 539.408 556.638 538.767 568.277C539.675 568.898 541.81 570.198 544.852 570.367C548.108 570.48 550.51 569.124 551.417 568.559C550.883 561.892 550.67 554.491 550.99 546.581C551.631 529.01 554.673 513.868 558.036 501.946C553.979 502.907 549.923 503.924 545.866 504.941Z" fill="#2C2C2C"/>
<path d="M640.714 315.891C650.054 333.519 642.849 353.012 625.342 401.432C616.908 424.71 601.483 467.481 579.706 528.444C558.303 536.693 522.862 546.863 479.041 543.643C453.581 541.778 432.231 535.959 416.058 529.97C413.656 525.393 405.33 508.274 411.575 491.663C415.044 482.454 422.036 475.843 436.874 468.046C451.499 460.362 477.279 449.571 514.749 447.593C500.07 370.245 525.21 306.852 564.334 292.218C590.007 282.67 627.85 291.653 640.714 315.891Z" fill="#F8F8F8" stroke="#2C2C2C" stroke-width="2" stroke-miterlimit="10"/>
<path d="M637.297 322.276C621.819 343.011 618.296 370.866 612.371 395.782C606.02 422.45 598.707 449.062 587.765 474.091C581.734 487.821 574.635 501.042 566.149 513.246C565.562 514.15 566.949 514.997 567.536 514.093C582.428 492.623 592.943 468.272 601.056 443.186C609.276 417.648 614.72 391.319 621.125 365.272C624.754 350.469 629.398 335.666 638.472 323.519C639.059 322.615 637.938 321.428 637.297 322.276Z" fill="#2C2C2C"/>
<path d="M416.378 517.709C451.98 531.552 490.783 535.62 528.252 529.461C538.981 527.71 549.602 525.111 560.011 521.721C560.971 521.382 560.598 519.743 559.584 520.082C523.289 531.948 484.325 533.756 447.176 525.394C436.874 523.077 426.68 519.913 416.805 516.071C415.845 515.675 415.418 517.314 416.378 517.709Z" fill="#2C2C2C"/>
<path d="M541.703 473.301C550.67 476.408 558.303 482.68 563.427 491.155C563.96 492.059 565.348 491.211 564.814 490.307C559.477 481.493 551.524 474.939 542.13 471.662C541.116 471.323 540.689 472.962 541.703 473.301Z" fill="#2C2C2C"/>
<path d="M381.151 546.468C385.421 553.248 389.691 560.085 393.907 566.865C366.58 592.855 363.057 600.256 365.085 602.064C369.142 605.624 398.231 589.804 401.22 588.165C412.055 582.289 420.221 576.583 425.666 572.515C423.744 566.978 421.182 560.763 417.659 554.209C413.016 545.564 407.892 538.276 403.035 532.343C395.722 536.976 388.41 541.722 381.151 546.468Z" fill="#2C2C2C"/>
<path d="M540.849 413.297C542.77 417.704 544.799 423.976 545.119 431.547C545.599 442.96 542.076 452.056 539.408 457.311C537.967 459.288 535.405 462.565 531.615 466.125C531.615 466.125 523.022 474.148 509.358 480.306C495.427 486.634 454.915 494.262 399.885 495.731C401.487 502.963 404.369 511.833 409.493 521.382C412.322 526.636 415.418 531.269 418.46 535.281C416.432 538.106 410.667 545.281 399.192 549.801C388.143 554.152 378.002 553.643 373.999 553.304C368.234 547.711 362.309 541.044 356.812 533.077C340.639 509.517 336.85 486.747 336.156 472.114C340.159 469.063 346.03 464.882 353.716 460.418C369.729 451.096 384.407 446.011 396.469 442.225C417.232 435.784 437.088 431.321 482.777 423.128C497.081 420.586 516.883 417.083 540.849 413.297Z" fill="#D7D2CC" stroke="#2C2C2C" stroke-width="2" stroke-miterlimit="10"/>
<path opacity="0.19" d="M490.143 423.015C488.595 433.807 484.218 447.819 470.661 456.52C457.477 464.995 446.429 461.549 420.008 468.329C401.006 473.188 375.867 479.629 368.875 493.923C361.562 508.952 375.386 530.139 399.565 547.541C401.594 547.259 404.156 546.694 406.878 545.564C413.87 542.626 417.286 537.824 418.567 535.733C415.471 531.778 412.269 527.202 409.333 521.947C403.782 512.116 400.793 502.963 399.085 495.561C427.374 494.318 451.126 491.72 469.166 489.234C490.89 486.239 505.942 483.244 520.3 474.656C532.309 467.481 537.113 460.418 538.821 457.706C543.998 449.401 544.425 441.83 544.639 437.592C545.172 427.253 541.97 418.834 539.301 413.523C522.915 416.687 506.529 419.851 490.143 423.015Z" fill="#293D4C"/>
<path opacity="0.19" d="M539.835 414.71C538.767 425.219 534.978 441.83 519.872 454.938C510.585 463.018 500.604 466.634 461.427 477.821C444.133 482.736 423.21 488.556 399.405 494.884C429.669 494.545 454.275 491.889 471.942 489.346C490.249 486.691 499.216 484.375 508.504 480.137C517.31 476.126 535.084 467.99 542.343 450.87C549.335 434.259 542.29 419.343 539.835 414.71Z" fill="#293D4C"/>
<path opacity="0.22" d="M399.565 495.731C399.352 503.189 399.672 511.721 401.006 521.1C402.287 530.366 404.369 538.671 406.611 545.903C408.425 544.773 410.507 543.248 412.535 541.383C414.991 539.123 416.805 536.976 418.14 535.112C415.044 530.818 411.895 525.846 408.959 520.252C404.209 511.212 401.38 502.85 399.565 495.731Z" fill="#293D4C"/>
<path d="M397.11 578.899C401.22 587.43 405.276 595.962 409.386 604.55C383.126 637.207 379.71 646.473 381.685 648.733C385.581 653.253 413.55 633.309 416.432 631.275C426.84 623.873 434.739 616.698 439.97 611.613C438.102 604.663 435.647 596.866 432.231 588.56C427.801 577.712 422.837 568.559 418.193 561.045C411.148 567.034 404.102 572.966 397.11 578.899Z" fill="#2C2C2C"/>
<path d="M550.616 411.546C552.485 417.14 554.406 424.937 554.726 434.485C555.207 448.836 551.791 460.249 549.229 466.86C547.841 469.346 545.386 473.47 541.756 477.99C541.756 477.99 533.536 488.104 520.406 495.844C507.009 503.754 468.045 513.416 415.204 515.224C416.752 524.32 419.474 535.451 424.438 547.429C427.16 554.039 430.149 559.859 433.085 564.887C431.163 568.447 425.612 577.43 414.564 583.137C403.942 588.617 394.228 587.996 390.331 587.487C384.78 580.481 379.069 572.063 373.839 562.062C358.253 532.456 354.624 503.811 353.983 485.448C357.826 481.663 363.484 476.352 370.849 470.758C386.275 459.063 400.312 452.622 411.948 447.876C431.857 439.796 451.019 434.203 494.946 423.863C508.504 420.643 527.612 416.292 550.616 411.546Z" fill="#D7D2CC" stroke="#2C2C2C" stroke-width="2" stroke-miterlimit="10"/>
<path opacity="0.19" d="M501.885 423.75C500.391 437.31 496.174 454.882 483.151 465.843C470.501 476.521 459.826 472.171 434.473 480.702C416.218 486.804 392.039 494.94 385.314 512.907C378.269 531.778 391.559 558.446 414.777 580.255C416.752 579.916 419.207 579.181 421.823 577.769C428.548 574.096 431.804 568.051 433.031 565.396C430.042 560.424 426.947 554.661 424.118 548.05C418.78 535.677 415.898 524.207 414.297 514.885C441.518 513.303 464.309 510.082 481.709 506.975C502.632 503.246 517.044 499.46 530.868 488.669C542.397 479.629 547.04 470.758 548.642 467.368C553.606 456.916 554.033 447.424 554.246 442.113C554.726 429.118 551.684 418.552 549.122 411.885C533.376 415.784 517.631 419.739 501.885 423.75Z" fill="#293D4C"/>
<path opacity="0.19" d="M549.602 413.297C548.588 426.462 544.959 447.367 530.441 463.865C521.474 474.035 511.92 478.555 474.29 492.624C457.637 498.839 437.568 506.127 414.67 514.094C443.76 513.642 467.458 510.364 484.431 507.144C502.045 503.81 510.692 500.929 519.552 495.618C528.039 490.533 545.066 480.363 552.111 458.78C558.783 437.875 552.004 419.173 549.602 413.297Z" fill="#293D4C"/>
<path opacity="0.22" d="M414.83 515.167C414.617 524.546 414.937 535.281 416.218 547.033C417.499 558.729 419.421 569.124 421.609 578.164C423.371 576.695 425.345 574.831 427.32 572.458C429.669 569.633 431.43 566.921 432.711 564.604C429.722 559.18 426.68 552.966 423.904 545.903C419.314 534.603 416.538 524.037 414.83 515.167Z" fill="#293D4C"/>
<path d="M394.068 323.745C393.053 323.237 391.025 322.276 391.079 321.203C391.185 319.451 396.683 318.265 400.793 318.321C403.568 318.321 408.692 318.943 414.67 323.35C409.066 325.214 400.793 326.909 394.068 323.745Z" fill="#F8F8F8" stroke="#2C2C2C" stroke-width="2" stroke-miterlimit="10"/>
<path d="M522.435 250.464C512.293 249.052 503.166 265.155 502.312 266.624C499.216 272.217 498.843 275.946 496.708 286.173C491.53 311.089 488.755 323.745 481.069 331.373C474.13 338.209 466.017 339.848 463.882 340.187C454.755 341.712 446.482 338.096 430.363 330.808C416.752 324.649 415.097 322.389 407.678 321.485C403.889 321.033 392.84 319.734 385.528 327.248C380.831 332.051 378.749 339.735 380.457 341.317C382.645 343.351 391.612 336.175 391.719 336.345C391.773 336.458 389.05 337.814 386.809 340.752C385.688 342.164 383.766 345.215 384.46 346.006C385.688 347.588 393.214 337.983 401.487 339.678C407.145 340.808 408.212 346.232 414.777 347.249C418.62 347.871 421.983 346.628 424.118 345.554C427.854 349.848 433.939 355.95 442.746 360.922C447.976 363.86 466.444 373.974 489.022 368.098C512.987 361.883 525.05 342.051 528.84 335.836C530.975 332.277 546.667 305.722 539.088 275.946C537.753 271.144 532.896 251.933 522.435 250.464Z" fill="#F8F8F8" stroke="#2C2C2C" stroke-width="2" stroke-miterlimit="10"/>
<path opacity="0.25" d="M521.367 250.634C517.898 252.555 524.623 265.889 523.769 284.986C522.968 303.348 515.549 316.909 512.24 323.124C507.756 331.429 501.832 342.277 490.036 349.339C474.184 358.831 454.542 357.419 440.557 350.978C436.394 349.057 432.177 342.842 422.997 339.056C418.994 337.418 415.845 336.74 412.162 335.949C403.141 334.084 395.135 332.389 387.716 336.344C384.193 338.265 381.258 341.203 381.471 341.599C381.685 341.994 385.795 339.791 389.424 337.7C385.047 343.859 384.353 345.61 384.674 345.949C385.047 346.288 386.382 344.989 389.798 342.955C393.481 340.808 396.149 339.282 399.405 339.565C401.06 339.734 402.341 340.3 403.088 340.639C406.024 341.995 406.718 343.577 409.653 345.159C411.468 346.119 412.962 346.514 413.763 346.684C415.471 347.079 418.994 347.588 423.637 345.836C427.694 350.356 446.322 370.357 473.596 369.962C487.634 369.736 497.935 364.199 501.992 361.995C524.249 349.735 533.11 327.983 535.351 321.994C542.29 303.462 544.745 276.002 532.042 258.77C529 254.589 523.769 249.334 521.367 250.634Z" fill="#293D4C"/>
<path d="M381.418 341.316C383.499 338.039 386.221 335.441 389.477 333.576C390.171 333.181 389.531 332.107 388.89 332.503C385.474 334.48 382.592 337.249 380.404 340.695C379.923 341.373 380.991 341.994 381.418 341.316Z" fill="#2C2C2C"/>
<path d="M382.058 334.028C384.14 330.581 387.503 328.773 390.865 327.022C391.559 326.683 390.972 325.553 390.278 325.948C386.702 327.756 383.179 329.734 380.991 333.406C380.617 334.084 381.631 334.706 382.058 334.028Z" fill="#2C2C2C"/>
<path opacity="0.29" d="M536.686 270.974C535.885 276.68 534.444 284.929 531.882 294.647C526.865 313.857 522.328 331.146 510.479 344.876C495.8 361.826 475.892 366.459 464.469 367.871C472.956 369.962 479.628 369.566 483.844 368.945C515.869 364.199 533.163 327.756 537.86 311.824C538.661 308.999 540.369 303.179 540.582 295.212C540.956 284.59 538.5 276.059 536.686 270.974Z" fill="#293D4C"/>
<path opacity="0.26" d="M402.554 339C405.597 340.582 409.76 342.334 414.884 343.351C418.94 344.142 422.57 344.311 425.452 344.198C418.14 348.323 414.35 347.814 412.215 346.458C410.881 345.611 409.386 343.916 405.276 340.921C404.155 340.074 403.195 339.396 402.554 339Z" fill="#293D4C"/>
<path d="M294.63 431.886C294.63 459.006 294.63 486.183 294.63 513.303C294.63 516.58 299.434 516.58 299.434 513.303C299.434 486.183 299.434 459.006 299.434 431.886C299.434 428.666 294.63 428.609 294.63 431.886Z" fill="#1C1C1C"/>
<path d="M381.951 430.813C381.951 435.163 381.951 439.514 381.951 443.864C381.951 447.141 386.755 447.141 386.755 443.864C386.755 439.514 386.755 435.163 386.755 430.813C386.755 427.536 381.951 427.536 381.951 430.813Z" fill="#1C1C1C"/>
<path d="M228.338 428.552C254.225 402.732 280.112 376.855 306.052 351.034C347.952 351.825 389.798 352.616 431.697 353.407C424.865 378.493 418.033 403.523 411.201 428.609C350.247 428.552 289.292 428.552 228.338 428.552Z" fill="#F8F8F8" stroke="#2C2C2C" stroke-width="2" stroke-miterlimit="10"/>
<path d="M229.886 431.491C276.696 431.491 323.453 431.491 370.262 431.491C383.393 431.491 396.47 431.491 409.6 431.491C412.696 431.491 412.696 426.406 409.6 426.406C362.79 426.406 316.033 426.406 269.223 426.406C256.093 426.406 243.016 426.406 229.886 426.406C226.79 426.406 226.79 431.491 229.886 431.491Z" fill="#1C1C1C"/>
<path d="M243.603 430.643C243.603 486.861 243.603 543.078 243.603 599.239C243.603 615.002 243.603 630.709 243.603 646.473C243.603 649.75 248.407 649.75 248.407 646.473C248.407 590.255 248.407 534.038 248.407 477.877C248.407 462.114 248.407 446.407 248.407 430.643C248.407 427.366 243.603 427.366 243.603 430.643Z" fill="#1C1C1C"/>
<path d="M390.011 430.643C390.011 486.861 390.011 543.078 390.011 599.239C390.011 615.002 390.011 630.709 390.011 646.473C390.011 649.75 394.815 649.75 394.815 646.473C394.815 590.255 394.815 534.038 394.815 477.877C394.815 462.114 394.815 446.407 394.815 430.643C394.815 427.366 390.011 427.366 390.011 430.643Z" fill="#1C1C1C"/>
<path d="M246.005 535.564C283.688 535.564 321.371 535.564 359.054 535.564C369.729 535.564 380.404 535.564 391.079 535.564C394.174 535.564 394.174 530.479 391.079 530.479C353.396 530.479 315.713 530.479 278.03 530.479C267.355 530.479 256.68 530.479 246.005 530.479C242.91 530.479 242.91 535.564 246.005 535.564Z" fill="#1C1C1C"/>
<path d="M431.056 353.407C424.972 378.55 417.98 403.467 409.973 427.988C409.279 430.078 412.375 430.925 413.069 428.891C421.075 404.314 428.067 379.454 434.152 354.311C434.633 352.221 431.59 351.317 431.056 353.407Z" fill="#1C1C1C"/>
<path d="M175.497 652.01C203.839 652.01 232.128 652.01 260.47 652.01C263.566 652.01 263.566 646.925 260.47 646.925C232.128 646.925 203.839 646.925 175.497 646.925C172.401 646.925 172.401 652.01 175.497 652.01Z" fill="#1C1C1C"/>
<path d="M272.373 650.88C278.884 650.88 285.45 650.88 291.961 650.88C295.057 650.88 295.057 645.795 291.961 645.795C285.45 645.795 278.884 645.795 272.373 645.795C269.277 645.795 269.277 650.88 272.373 650.88Z" fill="#1C1C1C"/>
<path d="M357.346 651.615C382.859 651.615 408.372 651.615 433.939 651.615C437.035 651.615 437.035 646.53 433.939 646.53C408.426 646.53 382.912 646.53 357.346 646.53C354.25 646.53 354.25 651.615 357.346 651.615Z" fill="#1C1C1C"/>
<path d="M451.392 649.806C455.929 649.806 460.466 649.806 465.056 649.806C468.152 649.806 468.152 644.721 465.056 644.721C460.52 644.721 455.983 644.721 451.392 644.721C448.297 644.721 448.297 649.806 451.392 649.806Z" fill="#1C1C1C"/>
<path d="M149.77 634.1C160.819 634.1 171.867 634.1 182.863 634.1C185.958 634.1 185.958 629.015 182.863 629.015C171.814 629.015 160.766 629.015 149.77 629.015C146.675 629.015 146.675 634.1 149.77 634.1Z" fill="#1C1C1C"/>
<path d="M383.232 417.874C350.3 416.97 317.314 416.123 284.382 415.219C303.917 395.444 323.399 375.612 342.934 355.837C365.459 357.08 388.036 358.323 410.56 359.566C401.433 379.059 392.36 398.438 383.232 417.874Z" fill="#F8F8F8" stroke="#1C1C1C" stroke-width="2" stroke-miterlimit="10"/>
<path d="M341.814 355.441C322.652 375.047 303.49 394.709 284.329 414.314C283.475 382.9 282.567 351.43 281.713 320.016C301.142 307.021 320.57 294.026 339.999 281.031C340.532 305.835 341.173 330.638 341.814 355.441Z" fill="#F8F8F8" stroke="#1C1C1C" stroke-width="2" stroke-miterlimit="10"/>
<path d="M283.475 323.011C285.023 350.978 286.037 379.002 286.57 407.026C286.57 407.591 287.371 407.591 287.371 407.026C286.837 379.002 285.823 350.978 284.275 323.011C284.222 322.502 283.421 322.502 283.475 323.011Z" fill="#1C1C1C"/>
<path d="M283.902 323.124C301.782 310.807 319.663 298.49 337.544 286.173C337.971 285.89 337.597 285.156 337.116 285.438C319.236 297.755 301.355 310.072 283.475 322.389C283.048 322.728 283.421 323.463 283.902 323.124Z" fill="#1C1C1C"/>
<path d="M337.33 286.116C337.277 308.659 337.917 331.259 339.305 353.746C339.358 354.311 340.159 354.311 340.106 353.746C338.771 331.203 338.077 308.659 338.131 286.116C338.131 285.607 337.33 285.607 337.33 286.116Z" fill="#1C1C1C"/>
<path d="M287.104 408.213C304.611 390.302 322.171 372.392 339.678 354.537C340.052 354.142 339.465 353.577 339.091 353.916C321.584 371.827 304.024 389.737 286.517 407.591C286.197 407.987 286.73 408.608 287.104 408.213Z" fill="#1C1C1C"/>
<path d="M368.181 398.608C371.437 393.127 374.692 387.59 377.842 381.996C378.108 381.544 377.415 381.092 377.148 381.544C373.999 387.138 370.743 392.675 367.487 398.156C367.167 398.608 367.86 399.06 368.181 398.608Z" fill="#1C1C1C"/>
<path d="M377.628 381.827C381.845 381.997 386.061 381.997 390.278 381.771C390.812 381.771 390.812 380.923 390.278 380.923C386.061 381.093 381.845 381.092 377.628 380.979C377.094 380.979 377.094 381.827 377.628 381.827Z" fill="#1C1C1C"/>
<path d="M389.744 381.544C387.342 387.081 384.887 392.618 382.432 398.155C382.218 398.664 382.912 399.059 383.126 398.607C385.581 393.07 388.036 387.533 390.438 381.996C390.652 381.431 389.958 381.036 389.744 381.544Z" fill="#1C1C1C"/>
<path d="M367.914 399.06C372.611 399.794 377.575 399.455 382.325 399.229C382.859 399.229 382.859 398.382 382.325 398.382C377.681 398.608 372.771 398.947 368.127 398.269C367.594 398.156 367.38 399.003 367.914 399.06Z" fill="#1C1C1C"/>
<path d="M385.421 381.601C383.286 387.251 380.831 392.731 378.055 398.042C377.788 398.494 378.482 398.946 378.749 398.494C381.524 393.07 384.033 387.533 386.221 381.827C386.382 381.319 385.634 381.093 385.421 381.601Z" fill="#1C1C1C"/>
<path d="M308.081 407.196C319.823 391.828 331.992 376.799 344.536 362.109C344.856 361.713 344.322 361.091 343.948 361.487C331.405 376.12 319.236 391.149 307.493 406.574C307.173 407.026 307.76 407.591 308.081 407.196Z" fill="#1C1C1C"/>
<path d="M322.278 408.156C332.793 392.619 343.895 377.589 355.531 363.012C355.851 362.617 355.317 361.996 354.944 362.391C343.255 377.025 332.153 392.11 321.584 407.704C321.264 408.156 321.958 408.608 322.278 408.156Z" fill="#1C1C1C"/>
<path d="M337.544 410.473C346.671 394.314 356.652 378.72 367.434 363.747C367.754 363.295 367.06 362.9 366.74 363.295C355.958 378.268 345.977 393.862 336.85 410.021C336.583 410.473 337.277 410.925 337.544 410.473Z" fill="#1C1C1C"/>
<path d="M350.353 411.885C359.321 394.201 369.942 377.533 382.112 362.165C382.432 361.77 381.898 361.148 381.525 361.544C369.302 376.968 358.627 393.692 349.606 411.433C349.393 411.942 350.087 412.394 350.353 411.885Z" fill="#1C1C1C"/>
<path d="M314.912 398.043C328.576 396.517 342.241 398.325 355.851 400.246C356.385 400.303 356.332 399.455 355.851 399.399C342.294 397.478 328.63 395.613 314.912 397.195C314.432 397.252 314.432 398.099 314.912 398.043Z" fill="#1C1C1C"/>
<path d="M321.798 389.793C334.715 389.285 347.631 390.302 360.335 392.901C360.815 393.014 361.029 392.166 360.548 392.11C347.792 389.511 334.768 388.494 321.798 389.002C321.317 388.946 321.317 389.793 321.798 389.793Z" fill="#1C1C1C"/>
<path d="M327.989 381.827C340.426 380.979 352.862 382.166 364.978 385.33C365.459 385.443 365.672 384.652 365.192 384.539C353.022 381.318 340.532 380.132 327.989 380.979C327.456 381.036 327.456 381.883 327.989 381.827Z" fill="#1C1C1C"/>
<path d="M334.394 373.861C346.35 373.917 358.2 375.217 369.889 377.759C370.369 377.872 370.583 377.025 370.102 376.968C358.36 374.426 346.404 373.126 334.394 373.07C333.914 373.013 333.914 373.861 334.394 373.861Z" fill="#1C1C1C"/>
<path d="M340.746 366.459C352.115 366.685 363.43 368.098 374.479 370.753C374.959 370.866 375.173 370.075 374.692 369.962C363.537 367.307 352.168 365.838 340.746 365.668C340.212 365.612 340.212 366.459 340.746 366.459Z" fill="#1C1C1C"/>
<path d="M377.361 375.047C372.13 383.183 366.953 391.319 361.722 399.455C361.455 399.907 362.149 400.359 362.416 399.907C367.647 391.771 372.824 383.635 378.055 375.499C378.375 374.991 377.681 374.595 377.361 375.047Z" fill="#1C1C1C"/>
<path d="M288.972 362.73C295.644 359.736 302.85 361.431 309.895 361.318C315.82 361.261 321.478 359.51 326.548 356.346C326.975 356.063 326.602 355.329 326.121 355.611C319.876 359.51 313.258 360.753 306.106 360.414C300.128 360.131 294.203 359.51 288.545 362.052C288.118 362.221 288.492 362.956 288.972 362.73Z" fill="#1C1C1C"/>
<path d="M306.96 359.227C318.382 352.391 323.666 337.983 335.569 331.938C336.049 331.712 335.622 330.977 335.142 331.203C323.186 337.305 317.955 351.656 306.533 358.493C306.106 358.775 306.479 359.51 306.96 359.227Z" fill="#1C1C1C"/>
<path d="M321.478 318.943C319.503 317.304 319.823 314.649 320.944 312.558C321.478 311.541 322.278 310.468 323.186 309.846C324.84 308.716 326.388 309.62 327.669 310.806C328.043 311.145 328.63 310.581 328.256 310.185C325.587 307.812 323.079 308.038 320.891 311.089C319.129 313.575 318.222 317.304 320.891 319.564C321.318 319.903 321.905 319.282 321.478 318.943Z" fill="#1C1C1C"/>
<path d="M485.873 277.641C471.248 294.817 467.298 313.688 465.163 324.366C461.267 344.141 465.377 352.051 465.643 389.624C465.75 405.613 465.11 418.552 464.629 426.688C467.939 429.4 488.435 445.559 515.816 440.248C536.099 436.349 548.321 422.902 552.164 418.326C553.072 412.958 554.353 405.048 555.847 395.443C563.747 343.633 567.643 317.36 562.733 298.546C559.797 287.133 552.538 269.053 531.935 250.352C523.289 252.273 502.526 258.148 485.873 277.641Z" fill="#304352"/>
<path opacity="0.19" d="M500.764 267.245C505.835 283.291 508.557 297.021 510.158 307.078C514.375 333.689 520.726 373.578 502.846 412.224C497.135 424.541 490.463 433.581 485.766 439.174C491.957 440.7 504.234 442.79 518.858 438.779C536.259 434.033 547.147 423.355 551.631 418.496C555.1 397.478 557.875 379.454 560.01 365.386C563.693 340.639 564.547 333.124 564.174 322.559C563.747 308.999 563.16 294.761 555.474 279.393C548.108 264.703 537.753 255.889 531.401 251.369C526.224 252.329 518.912 254.363 511.172 259.109C506.902 261.821 503.433 264.703 500.764 267.245Z" fill="#293D4C"/>
<path opacity="0.18" d="M561.398 294.196C560.437 294.252 562.466 309.903 559.317 331.486C553.499 371.431 534.817 399.116 527.612 408.947C521.58 417.139 512.133 428.439 498.309 439.57C503.273 440.361 509.891 440.7 517.471 439.174C535.458 435.615 546.88 423.919 551.257 418.891C552.378 411.998 554.193 401.206 556.488 387.872C561.879 356.684 562.946 352.956 563.8 343.238C566.149 316.739 562.519 294.196 561.398 294.196Z" fill="#293D4C"/>
<path d="M391.826 336.175C390.812 335.44 388.783 334.084 388.997 332.954C389.424 331.146 395.562 330.864 399.992 331.655C402.981 332.164 408.426 333.802 414.137 339.508C407.732 340.469 398.498 340.751 391.826 336.175Z" fill="#F8F8F8" stroke="#2C2C2C" stroke-width="2" stroke-miterlimit="10"/>
<path d="M542.503 282.048C531.775 278.715 519.232 294.026 518.111 295.495C513.841 300.863 512.827 304.705 508.824 315.101C499.11 340.526 494.039 353.351 484.431 360.018C475.838 366.007 466.818 366.233 464.416 366.233C454.328 366.177 446.001 360.866 429.775 350.244C416.111 341.26 414.724 338.548 406.824 336.288C402.821 335.158 391.079 331.768 381.951 338.379C376.134 342.56 372.557 350.356 374.159 352.334C376.187 354.876 387.075 348.888 387.129 349.114C387.182 349.227 383.98 350.187 381.097 352.899C379.656 354.198 377.094 357.024 377.681 358.041C378.749 359.962 388.463 351.147 397.11 354.424C402.981 356.628 403.301 362.56 410.187 364.877C414.243 366.233 418.086 365.498 420.542 364.764C423.851 370.018 429.455 377.533 438.102 384.369C443.279 388.437 461.534 402.449 486.887 400.359C513.788 398.155 530.12 379.341 535.191 373.521C538.127 370.188 559.423 344.932 556.167 312.049C555.687 306.682 553.605 285.551 542.503 282.048Z" fill="#F8F8F8" stroke="#2C2C2C" stroke-width="2" stroke-miterlimit="10"/>
<path opacity="0.25" d="M541.329 282.048C537.273 283.46 542.343 298.772 538.233 318.829C534.337 338.096 524.089 351.091 519.445 357.023C513.201 364.99 505.034 375.386 491.103 380.697C472.422 387.816 451.446 382.787 437.408 373.465C433.245 370.64 429.722 363.351 420.381 357.645C416.325 355.159 413.069 353.916 409.173 352.39C399.779 348.774 391.345 345.497 382.752 348.379C378.642 349.735 374.959 352.334 375.173 352.786C375.386 353.294 380.137 351.656 384.407 350.13C378.696 355.837 377.628 357.588 377.895 358.04C378.215 358.492 379.923 357.306 383.926 355.837C388.303 354.198 391.345 353.125 394.868 354.029C396.63 354.481 397.911 355.328 398.711 355.837C401.647 357.758 402.127 359.622 405.009 361.826C406.771 363.182 408.372 363.86 409.226 364.199C410.987 364.933 414.724 366.12 420.008 365.103C423.637 370.64 440.45 395.161 469.967 399.681C485.179 401.997 497.188 398.042 501.938 396.404C527.985 387.477 541.169 366.12 544.585 360.187C555.153 341.881 562.359 313.292 551.47 292.726C548.908 287.585 544.105 281.087 541.329 282.048Z" fill="#293D4C"/>
<path d="M375.119 352.504C377.948 349.396 381.258 347.136 385.101 345.78C385.848 345.497 385.528 344.311 384.78 344.537C380.777 346.006 377.201 348.379 374.266 351.599C373.732 352.221 374.586 353.125 375.119 352.504Z" fill="#2C2C2C"/>
<path d="M377.041 344.932C379.87 341.599 383.82 340.299 387.769 339.113C388.517 338.887 388.196 337.644 387.449 337.87C383.339 339.169 379.176 340.582 376.24 344.028C375.653 344.65 376.507 345.497 377.041 344.932Z" fill="#2C2C2C"/>
<path opacity="0.29" d="M554.513 306.343C552.698 312.219 549.763 320.694 545.439 330.525C536.846 349.905 529.106 367.363 514.001 379.736C495.373 394.991 473.063 396.291 460.519 395.669C469.326 399.455 476.639 400.246 481.282 400.359C516.617 401.15 541.383 365.724 549.069 349.791C550.403 346.966 553.179 341.091 554.78 332.729C556.861 321.485 555.634 312.05 554.513 306.343Z" fill="#293D4C"/>
<path opacity="0.26" d="M398.391 353.86C401.38 356.063 405.597 358.662 410.988 360.696C415.257 362.278 419.154 363.069 422.25 363.465C413.656 366.459 409.653 365.273 407.571 363.465C406.29 362.335 404.956 360.244 400.953 356.346C399.939 355.272 399.032 354.425 398.391 353.86Z" fill="#293D4C"/>
<path d="M459.772 168.088C459.185 171.704 458.598 175.32 458.118 179.105C456.036 194.473 455.182 208.994 455.129 222.497C458.064 222.158 460.946 221.819 463.882 221.537C463.562 224.531 462.654 235.492 469.273 246.34C475.518 256.567 484.485 260.296 487.26 261.313C486.94 266.85 486.673 272.33 486.353 277.867C492.117 272.443 499.964 266.059 509.945 260.352C517.577 256.002 524.783 253.007 530.921 250.973C524.036 241.933 521.42 233.402 520.299 228.486C518.378 220.011 518.752 212.723 519.125 206.282C519.499 199.671 520.406 194.191 521.207 190.348C523.715 178.257 517.15 159.104 504.073 152.211C491.157 145.374 471.888 151.138 459.772 168.088Z" fill="white" stroke="#1C1C1C" stroke-width="2" stroke-miterlimit="10"/>
<path d="M462.654 221.932C464.149 221.706 465.697 221.536 467.191 221.367C467.725 221.31 467.725 220.463 467.191 220.519C465.59 220.689 464.042 220.915 462.441 221.141C461.961 221.141 462.174 221.989 462.654 221.932Z" fill="#1C1C1C"/>
<path d="M510.799 176.845C504.34 178.596 503.166 184.529 495 196.902C486.727 209.445 481.496 217.299 472.155 221.876C466.124 224.814 463.135 224.023 460.466 227.808C455.876 234.362 458.972 245.154 461.694 250.691C464.843 257.075 469.647 260.917 473.596 264.081C477.386 267.076 480.855 269.053 483.311 270.24C480.695 266.002 480.535 264.703 480.855 264.307C481.709 263.403 485.339 268.262 489.609 267.641C490.836 267.471 493.025 266.737 497.882 258.657C501.191 253.176 503.433 249.391 504.927 243.967C508.183 232.328 503.593 229.164 504.927 213.852C505.141 211.536 506.635 193.399 512.72 192.213C514.909 191.761 517.15 193.682 518.218 195.151C520.46 198.258 520.193 203.23 517.417 207.524C518.325 206.846 527.025 200.631 526.918 190.518C526.918 188.936 526.865 183.116 522.701 179.331C517.951 175.037 511.332 176.732 510.799 176.845Z" fill="#1C1C1C" stroke="#1C1C1C" stroke-width="2" stroke-miterlimit="10"/>
<path d="M467.779 202.552C469.017 202.552 470.02 200.655 470.02 198.315C470.02 195.975 469.017 194.077 467.779 194.077C466.54 194.077 465.537 195.975 465.537 198.315C465.537 200.655 466.54 202.552 467.779 202.552Z" fill="#1C1C1C"/>
<path d="M450.699 204.53C451.937 204.53 452.94 202.633 452.94 200.293C452.94 197.952 451.937 196.055 450.699 196.055C449.46 196.055 448.457 197.952 448.457 200.293C448.457 202.633 449.46 204.53 450.699 204.53Z" fill="#1C1C1C"/>
<path d="M447.336 193.343C448.777 191.592 451.019 191.422 452.62 193.117C453.367 193.908 454.488 192.665 453.741 191.931C451.552 189.671 448.19 189.727 446.162 192.157C445.575 193.004 446.695 194.191 447.336 193.343Z" fill="#1C1C1C"/>
<path d="M464.843 190.405C466.711 188.766 469.166 188.992 470.768 190.857C471.461 191.648 472.582 190.461 471.888 189.67C469.647 187.128 466.177 187.015 463.669 189.218C462.921 189.896 464.042 191.083 464.843 190.405Z" fill="#1C1C1C"/>
<path d="M457.957 174.811C458.545 170.743 460.039 164.076 464.149 157.183C465.59 154.754 468.686 149.612 473.596 146.109C482.99 139.499 497.455 140.007 507.97 148.143C518.271 156.11 523.395 170.348 521.153 184.473C500.07 181.309 479.041 178.088 457.957 174.811Z" fill="#304252"/>
<path d="M423.477 175.319C455.876 179.726 488.328 184.133 520.726 188.484C523.769 188.879 523.769 183.794 520.726 183.399C488.328 178.992 455.876 174.585 423.477 170.234C420.435 169.782 420.435 174.867 423.477 175.319Z" fill="#1C1C1C"/>
<path d="M485.392 141.985C493.719 143.906 500.017 151.025 501.084 159.556C502.045 167.014 498.95 174.585 493.078 179.218C502.312 180.518 511.599 181.874 520.833 183.173C521.314 180.574 521.741 176.619 521.153 171.986C519.766 161.138 513.841 154.189 511.92 152.098C509.838 149.838 502.472 142.267 491.53 141.589C489.022 141.476 486.887 141.702 485.392 141.985Z" fill="#293D4C"/>
</svg>
