<svg width="241" height="20" viewBox="0 0 241 20" fill="none" xmlns="http://www.w3.org/2000/svg">
<path d="M8.78532 2.49V4.164H5.45532V15H3.40332V4.164H0.0553173V2.49H8.78532ZM17.7935 4.92C18.5495 4.92 19.2215 5.082 19.8095 5.406C20.4095 5.73 20.8775 6.21 21.2135 6.846C21.5615 7.482 21.7355 8.25 21.7355 9.15V15H19.7015V9.456C19.7015 8.568 19.4795 7.89 19.0355 7.422C18.5915 6.942 17.9855 6.702 17.2175 6.702C16.4495 6.702 15.8375 6.942 15.3815 7.422C14.9375 7.89 14.7155 8.568 14.7155 9.456V15H12.6635V1.68H14.7155V6.234C15.0635 5.814 15.5015 5.49 16.0295 5.262C16.5695 5.034 17.1575 4.92 17.7935 4.92ZM27.1969 3.768C26.8249 3.768 26.5129 3.642 26.2609 3.39C26.0089 3.138 25.8829 2.826 25.8829 2.454C25.8829 2.082 26.0089 1.77 26.2609 1.518C26.5129 1.266 26.8249 1.14 27.1969 1.14C27.5569 1.14 27.8629 1.266 28.1149 1.518C28.3669 1.77 28.4929 2.082 28.4929 2.454C28.4929 2.826 28.3669 3.138 28.1149 3.39C27.8629 3.642 27.5569 3.768 27.1969 3.768ZM28.2049 5.082V15H26.1529V5.082H28.2049ZM37.703 4.92C38.483 4.92 39.179 5.082 39.791 5.406C40.415 5.73 40.901 6.21 41.249 6.846C41.597 7.482 41.771 8.25 41.771 9.15V15H39.737V9.456C39.737 8.568 39.515 7.89 39.071 7.422C38.627 6.942 38.021 6.702 37.253 6.702C36.485 6.702 35.873 6.942 35.417 7.422C34.973 7.89 34.751 8.568 34.751 9.456V15H32.699V5.082H34.751V6.216C35.087 5.808 35.513 5.49 36.029 5.262C36.557 5.034 37.115 4.92 37.703 4.92ZM50.1125 10.05L54.6845 15H51.9125L48.2405 10.734V15H46.1885V1.68H48.2405V9.42L51.8405 5.082H54.6845L50.1125 10.05ZM67.0231 17.034H64.9711V0.581999H67.0231V17.034ZM82.6288 2.49C83.9608 2.49 85.1248 2.748 86.1208 3.264C87.1288 3.768 87.9028 4.5 88.4428 5.46C88.9948 6.408 89.2708 7.518 89.2708 8.79C89.2708 10.062 88.9948 11.166 88.4428 12.102C87.9028 13.038 87.1288 13.758 86.1208 14.262C85.1248 14.754 83.9608 15 82.6288 15H78.5428V2.49H82.6288ZM82.6288 13.326C84.0928 13.326 85.2148 12.93 85.9948 12.138C86.7748 11.346 87.1648 10.23 87.1648 8.79C87.1648 7.338 86.7748 6.204 85.9948 5.388C85.2148 4.572 84.0928 4.164 82.6288 4.164H80.5948V13.326H82.6288ZM102.194 9.798C102.194 10.17 102.17 10.506 102.122 10.806H94.5445C94.6045 11.598 94.8985 12.234 95.4265 12.714C95.9545 13.194 96.6025 13.434 97.3705 13.434C98.4745 13.434 99.2545 12.972 99.7105 12.048H101.924C101.624 12.96 101.078 13.71 100.286 14.298C99.5065 14.874 98.5345 15.162 97.3705 15.162C96.4225 15.162 95.5705 14.952 94.8145 14.532C94.0705 14.1 93.4825 13.5 93.0505 12.732C92.6305 11.952 92.4205 11.052 92.4205 10.032C92.4205 9.012 92.6245 8.118 93.0325 7.35C93.4525 6.57 94.0345 5.97 94.7785 5.55C95.5345 5.13 96.3985 4.92 97.3705 4.92C98.3065 4.92 99.1405 5.124 99.8725 5.532C100.604 5.94 101.174 6.516 101.582 7.26C101.99 7.992 102.194 8.838 102.194 9.798ZM100.052 9.15C100.04 8.394 99.7705 7.788 99.2425 7.332C98.7145 6.876 98.0605 6.648 97.2805 6.648C96.5725 6.648 95.9665 6.876 95.4625 7.332C94.9585 7.776 94.6585 8.382 94.5625 9.15H100.052ZM109.614 15.162C108.834 15.162 108.132 15.024 107.508 14.748C106.896 14.46 106.41 14.076 106.05 13.596C105.69 13.104 105.498 12.558 105.474 11.958H107.598C107.634 12.378 107.832 12.732 108.192 13.02C108.564 13.296 109.026 13.434 109.578 13.434C110.154 13.434 110.598 13.326 110.91 13.11C111.234 12.882 111.396 12.594 111.396 12.246C111.396 11.874 111.216 11.598 110.856 11.418C110.508 11.238 109.95 11.04 109.182 10.824C108.438 10.62 107.832 10.422 107.364 10.23C106.896 10.038 106.488 9.744 106.14 9.348C105.804 8.952 105.636 8.43 105.636 7.782C105.636 7.254 105.792 6.774 106.104 6.342C106.416 5.898 106.86 5.55 107.436 5.298C108.024 5.046 108.696 4.92 109.452 4.92C110.58 4.92 111.486 5.208 112.17 5.784C112.866 6.348 113.238 7.122 113.286 8.106H111.234C111.198 7.662 111.018 7.308 110.694 7.044C110.37 6.78 109.932 6.648 109.38 6.648C108.84 6.648 108.426 6.75 108.138 6.954C107.85 7.158 107.706 7.428 107.706 7.764C107.706 8.028 107.802 8.25 107.994 8.43C108.186 8.61 108.42 8.754 108.696 8.862C108.972 8.958 109.38 9.084 109.92 9.24C110.64 9.432 111.228 9.63 111.684 9.834C112.152 10.026 112.554 10.314 112.89 10.698C113.226 11.082 113.4 11.592 113.412 12.228C113.412 12.792 113.256 13.296 112.944 13.74C112.632 14.184 112.188 14.532 111.612 14.784C111.048 15.036 110.382 15.162 109.614 15.162ZM118.473 3.768C118.101 3.768 117.789 3.642 117.537 3.39C117.285 3.138 117.159 2.826 117.159 2.454C117.159 2.082 117.285 1.77 117.537 1.518C117.789 1.266 118.101 1.14 118.473 1.14C118.833 1.14 119.139 1.266 119.391 1.518C119.643 1.77 119.769 2.082 119.769 2.454C119.769 2.826 119.643 3.138 119.391 3.39C119.139 3.642 118.833 3.768 118.473 3.768ZM119.481 5.082V15H117.429V5.082H119.481ZM127.971 4.92C128.739 4.92 129.417 5.076 130.005 5.388C130.605 5.688 131.073 6.066 131.409 6.522V5.082H133.479V15.162C133.479 16.074 133.287 16.884 132.903 17.592C132.519 18.312 131.961 18.876 131.229 19.284C130.509 19.692 129.645 19.896 128.637 19.896C127.293 19.896 126.177 19.578 125.289 18.942C124.401 18.318 123.897 17.466 123.777 16.386H125.811C125.967 16.902 126.297 17.316 126.801 17.628C127.317 17.952 127.929 18.114 128.637 18.114C129.465 18.114 130.131 17.862 130.635 17.358C131.151 16.854 131.409 16.122 131.409 15.162V13.506C131.061 13.974 130.587 14.37 129.987 14.694C129.399 15.006 128.727 15.162 127.971 15.162C127.107 15.162 126.315 14.946 125.595 14.514C124.887 14.07 124.323 13.458 123.903 12.678C123.495 11.886 123.291 10.992 123.291 9.996C123.291 9 123.495 8.118 123.903 7.35C124.323 6.582 124.887 5.988 125.595 5.568C126.315 5.136 127.107 4.92 127.971 4.92ZM131.409 10.032C131.409 9.348 131.265 8.754 130.977 8.25C130.701 7.746 130.335 7.362 129.879 7.098C129.423 6.834 128.931 6.702 128.403 6.702C127.875 6.702 127.383 6.834 126.927 7.098C126.471 7.35 126.099 7.728 125.811 8.232C125.535 8.724 125.397 9.312 125.397 9.996C125.397 10.68 125.535 11.28 125.811 11.796C126.099 12.312 126.471 12.708 126.927 12.984C127.395 13.248 127.887 13.38 128.403 13.38C128.931 13.38 129.423 13.248 129.879 12.984C130.335 12.72 130.701 12.336 130.977 11.832C131.265 11.316 131.409 10.716 131.409 10.032ZM142.978 4.92C143.758 4.92 144.454 5.082 145.066 5.406C145.69 5.73 146.176 6.21 146.524 6.846C146.872 7.482 147.046 8.25 147.046 9.15V15H145.012V9.456C145.012 8.568 144.79 7.89 144.346 7.422C143.902 6.942 143.296 6.702 142.528 6.702C141.76 6.702 141.148 6.942 140.692 7.422C140.248 7.89 140.026 8.568 140.026 9.456V15H137.974V5.082H140.026V6.216C140.362 5.808 140.788 5.49 141.304 5.262C141.832 5.034 142.39 4.92 142.978 4.92ZM160.532 17.034H158.48V0.581999H160.532V17.034ZM171.367 8.718C171.367 7.494 171.649 6.396 172.213 5.424C172.789 4.452 173.563 3.696 174.535 3.156C175.519 2.604 176.593 2.328 177.757 2.328C179.089 2.328 180.271 2.658 181.303 3.318C182.347 3.966 183.103 4.89 183.571 6.09H181.105C180.781 5.43 180.331 4.938 179.755 4.614C179.179 4.29 178.513 4.128 177.757 4.128C176.929 4.128 176.191 4.314 175.543 4.686C174.895 5.058 174.385 5.592 174.013 6.288C173.653 6.984 173.473 7.794 173.473 8.718C173.473 9.642 173.653 10.452 174.013 11.148C174.385 11.844 174.895 12.384 175.543 12.768C176.191 13.14 176.929 13.326 177.757 13.326C178.513 13.326 179.179 13.164 179.755 12.84C180.331 12.516 180.781 12.024 181.105 11.364H183.571C183.103 12.564 182.347 13.488 181.303 14.136C180.271 14.784 179.089 15.108 177.757 15.108C176.581 15.108 175.507 14.838 174.535 14.298C173.563 13.746 172.789 12.984 172.213 12.012C171.649 11.04 171.367 9.942 171.367 8.718ZM189.825 6.522C190.125 6.018 190.521 5.628 191.013 5.352C191.517 5.064 192.111 4.92 192.795 4.92V7.044H192.273C191.469 7.044 190.857 7.248 190.437 7.656C190.029 8.064 189.825 8.772 189.825 9.78V15H187.773V5.082H189.825V6.522ZM205.571 9.798C205.571 10.17 205.547 10.506 205.499 10.806H197.921C197.981 11.598 198.275 12.234 198.803 12.714C199.331 13.194 199.979 13.434 200.747 13.434C201.851 13.434 202.631 12.972 203.087 12.048H205.301C205.001 12.96 204.455 13.71 203.663 14.298C202.883 14.874 201.911 15.162 200.747 15.162C199.799 15.162 198.947 14.952 198.191 14.532C197.447 14.1 196.859 13.5 196.427 12.732C196.007 11.952 195.797 11.052 195.797 10.032C195.797 9.012 196.001 8.118 196.409 7.35C196.829 6.57 197.411 5.97 198.155 5.55C198.911 5.13 199.775 4.92 200.747 4.92C201.683 4.92 202.517 5.124 203.249 5.532C203.981 5.94 204.551 6.516 204.959 7.26C205.367 7.992 205.571 8.838 205.571 9.798ZM203.429 9.15C203.417 8.394 203.147 7.788 202.619 7.332C202.091 6.876 201.437 6.648 200.657 6.648C199.949 6.648 199.343 6.876 198.839 7.332C198.335 7.776 198.035 8.382 197.939 9.15H203.429ZM208.707 9.996C208.707 9 208.911 8.118 209.319 7.35C209.739 6.582 210.303 5.988 211.011 5.568C211.731 5.136 212.523 4.92 213.387 4.92C214.167 4.92 214.845 5.076 215.421 5.388C216.009 5.688 216.477 6.066 216.825 6.522V5.082H218.895V15H216.825V13.524C216.477 13.992 216.003 14.382 215.403 14.694C214.803 15.006 214.119 15.162 213.351 15.162C212.499 15.162 211.719 14.946 211.011 14.514C210.303 14.07 209.739 13.458 209.319 12.678C208.911 11.886 208.707 10.992 208.707 9.996ZM216.825 10.032C216.825 9.348 216.681 8.754 216.393 8.25C216.117 7.746 215.751 7.362 215.295 7.098C214.839 6.834 214.347 6.702 213.819 6.702C213.291 6.702 212.799 6.834 212.343 7.098C211.887 7.35 211.515 7.728 211.227 8.232C210.951 8.724 210.813 9.312 210.813 9.996C210.813 10.68 210.951 11.28 211.227 11.796C211.515 12.312 211.887 12.708 212.343 12.984C212.811 13.248 213.303 13.38 213.819 13.38C214.347 13.38 214.839 13.248 215.295 12.984C215.751 12.72 216.117 12.336 216.393 11.832C216.681 11.316 216.825 10.716 216.825 10.032ZM225.784 6.756V12.246C225.784 12.618 225.868 12.888 226.036 13.056C226.216 13.212 226.516 13.29 226.936 13.29H228.196V15H226.576C225.652 15 224.944 14.784 224.452 14.352C223.96 13.92 223.714 13.218 223.714 12.246V6.756H222.544V5.082H223.714V2.616H225.784V5.082H228.196V6.756H225.784ZM240.977 9.798C240.977 10.17 240.953 10.506 240.905 10.806H233.327C233.387 11.598 233.681 12.234 234.209 12.714C234.737 13.194 235.385 13.434 236.153 13.434C237.257 13.434 238.037 12.972 238.493 12.048H240.707C240.407 12.96 239.861 13.71 239.069 14.298C238.289 14.874 237.317 15.162 236.153 15.162C235.205 15.162 234.353 14.952 233.597 14.532C232.853 14.1 232.265 13.5 231.833 12.732C231.413 11.952 231.203 11.052 231.203 10.032C231.203 9.012 231.407 8.118 231.815 7.35C232.235 6.57 232.817 5.97 233.561 5.55C234.317 5.13 235.181 4.92 236.153 4.92C237.089 4.92 237.923 5.124 238.655 5.532C239.387 5.94 239.957 6.516 240.365 7.26C240.773 7.992 240.977 8.838 240.977 9.798ZM238.835 9.15C238.823 8.394 238.553 7.788 238.025 7.332C237.497 6.876 236.843 6.648 236.063 6.648C235.355 6.648 234.749 6.876 234.245 7.332C233.741 7.776 233.441 8.382 233.345 9.15H238.835Z" fill="#f8f8f8"/>
</svg>
